<?xml version="1.0" encoding="UTF-8" standalone="no"?>
<!-- Created with Inkscape (http://www.inkscape.org/) -->
<svg version="1.1" xmlns:svg="http://www.w3.org/2000/svg" xmlns="http://www.w3.org/2000/svg" x="0" y="0" width="523" height="200" viewBox="0 0 523 200">
	<g>
		<path d="M 499.55652,153.08791 C 499.55652,166.32315 488.96835,176.91132 475.73314,176.91132 L 46.912044,176.91132 C 33.676833,176.91132 23.088665,166.32315 23.088665,153.08791 L 23.088665,46.912054 C 23.088665,33.970956 33.676833,23.088676 46.912044,23.088676 L 475.73314,23.088676 C 488.96835,23.088676 499.55652,33.970956 499.55652,46.912054 L 499.55652,153.08791 z" fill="none" stroke="#FFF" stroke-width="46.17734909" stroke-miterlimit="4" stroke-dasharray="none"/>
		<path d="M 261.0285,176.91132 L 46.617931,176.91132 C 33.382721,176.91132 22.794553,166.32315 22.794553,153.08791 L 22.794553,46.912054 C 22.794553,33.970956 33.382721,23.088676 46.617931,23.088676 L 261.0285,23.088676 L 261.0285,176.91132 z" fill="#FFF"/>
		<path d="M 261.0285,176.91132 L 46.617931,176.91132 C 33.382721,176.91132 22.794553,166.32315 22.794553,153.08791 L 22.794553,46.912054 C 22.794553,33.970956 33.382721,23.088676 46.617931,23.088676 L 261.0285,23.088676" fill="none" stroke="#000" stroke-width="0.88234788"/>
		<path d="M 46.617931,23.088676 C 33.382721,23.088676 22.794553,33.970956 22.794553,46.912054 L 22.794553,153.08791 C 22.794553,166.32315 33.382721,176.91132 46.617931,176.91132 L 261.0285,176.91132 L 261.0285,23.088676 L 46.617931,23.088676 z" fill="#33A02C" fill-opacity="1" stroke="#000" stroke-width="0.88234788"/>
		<path d="M 261.0285,23.088676 L 261.0285,176.91132" fill="none" stroke="#000" stroke-width="0.88234788"/>
		<path d="M 156.02909,132.4998 C 151.91145,136.61744 147.20559,138.088 141.6174,138.088 C 136.0292,138.088 131.32334,136.32332 127.79396,132.4998 C 122.49985,127.49983 122.49985,121.0293 122.49985,111.91169 C 122.49985,103.08823 122.49985,96.61766 127.79396,91.617689 C 131.32334,87.794166 135.73509,85.73538 141.6174,85.73538 C 153.38205,85.73538 159.55847,93.676506 161.02906,102.49997 L 150.735,102.49997 C 149.55852,97.499997 146.61737,94.852955 141.6174,94.852955 C 138.97035,94.852955 136.61743,96.029436 135.14683,97.499997 C 133.08805,99.852927 132.79393,102.20586 132.79393,111.91169 C 132.79393,121.91163 133.08805,124.55867 135.14683,126.61749 C 136.61743,128.3822 138.97035,129.26453 141.6174,129.26453 C 144.55855,129.26453 147.20559,128.08805 148.67619,126.32338 C 150.44089,124.55867 151.02912,122.20574 151.02912,119.5587 L 151.02912,117.49988 L 141.6174,117.49988 L 141.6174,109.26465 L 161.02906,109.26465 L 161.02906,116.61755 C 161.02906,124.26456 159.85258,128.67631 156.02909,132.4998 z" fill="#FFF"/>
		<path d="M 141.91151,58.088479 C 144.55855,62.500194 189.26419,138.088 191.91123,142.79386 C 186.61714,142.79386 97.205875,142.79386 91.617678,142.79386 C 94.558833,138.088 139.26447,62.500194 141.91151,58.088479 z M 140.44095,53.970843 L 86.029482,146.02915 L 197.79354,146.02915 L 141.91151,51.617914 L 140.44095,53.970843 z" fill="#FFF"/>
		<path d="M 261.61672,23.088676 L 261.61672,176.91132 L 476.02726,176.91132 C 489.26247,176.91132 499.85067,166.32315 499.85067,153.08791 L 499.85067,46.912054 C 499.85067,33.970956 489.26247,23.088676 476.02726,23.088676 L 261.61672,23.088676 z" fill="#FFF" stroke="#000" stroke-width="0.88234788"/>
		<path d="M 288.08714,89.852983 C 288.08714,86.323605 286.91069,84.558899 283.08717,84.558899 C 281.91072,84.558899 277.49897,84.853011 277.49897,91.029464 L 277.49897,100.7353 C 277.49897,107.20583 279.55779,108.97053 283.08717,108.97053 C 285.73421,108.97053 287.49892,108.08817 288.38125,107.49994 L 288.38125,98.676478 L 282.79306,98.676478 L 282.79306,95.44118 L 291.91067,95.44118 L 291.91067,109.85287 C 289.55774,111.02935 286.91069,111.91169 283.08717,111.91169 C 276.91075,111.91169 273.67548,108.67642 273.67548,100.7353 L 273.67548,91.029464 C 273.67548,85.147124 276.91075,81.323633 283.08717,81.323633 C 289.26362,81.323633 292.49889,83.676562 292.20478,89.852983 L 288.08714,89.852983 z" fill="#000"/>
		<path d="M 308.9694,99.558815 C 308.9694,93.676506 307.20469,93.088282 304.85176,93.088282 C 302.79295,93.088282 301.02824,93.970618 300.73413,99.558815 L 308.9694,99.558815 z M 300.73413,102.20586 C 300.73413,108.08817 302.49883,108.97053 305.14588,108.97053 C 307.20469,108.97053 308.38114,107.20583 308.67525,105.14701 L 312.20466,105.14701 C 312.20466,109.85287 309.26351,111.91169 305.14588,111.91169 C 300.73413,111.91169 297.20475,110.4411 297.20475,101.32352 C 297.20475,95.44118 298.08709,90.441208 305.14588,90.441208 C 311.02818,90.441208 312.49878,93.676506 312.49878,100.44115 L 312.49878,102.20586 L 300.73413,102.20586 z" fill="#000"/>
		<path d="M 328.08692,111.32346 L 328.08692,97.205885 C 328.08692,94.852955 327.20458,93.088282 324.55754,93.088282 C 320.73402,93.088282 320.14579,96.323548 320.14579,99.264703 L 320.14579,111.32346 L 316.91052,111.32346 L 316.91052,95.147067 C 316.91052,93.676506 316.91052,92.205913 316.61641,90.735352 L 320.14579,90.735352 L 320.14579,93.382394 L 320.4399,93.382394 C 321.61638,91.323576 323.38106,90.441208 326.0281,90.441208 C 330.43985,90.441208 331.32218,93.088282 331.32218,97.205885 L 331.32218,111.32346 L 328.08692,111.32346 z" fill="#000"/>
		<path d="M 347.49858,99.558815 C 347.49858,93.676506 345.73387,93.088282 343.38095,93.088282 C 341.32213,93.088282 339.55745,93.970618 339.55745,99.558815 L 347.49858,99.558815 z M 339.55745,102.20586 C 339.55745,108.08817 341.02802,108.97053 343.67506,108.97053 C 346.02799,108.97053 347.20447,107.20583 347.20447,105.14701 L 351.02796,105.14701 C 350.73385,109.85287 348.0868,111.91169 343.67506,111.91169 C 339.26334,111.91169 336.02804,110.4411 336.02804,101.32352 C 336.02804,95.44118 336.6163,90.441208 343.67506,90.441208 C 349.5574,90.441208 351.02796,93.676506 351.02796,100.44115 L 351.02796,102.20586 L 339.55745,102.20586 z" fill="#000"/>
		<path d="M 358.96909,93.970618 L 358.96909,93.970618 C 360.43968,90.735352 362.20438,90.441208 365.43965,90.441208 L 365.43965,93.970618 C 364.85143,93.970618 364.2632,93.676506 363.67494,93.676506 C 359.85145,93.676506 358.96909,96.61766 358.96909,99.264703 L 358.96909,111.32346 L 355.73382,111.32346 L 355.73382,90.735352 L 358.96909,90.735352 L 358.96909,93.970618 z" fill="#000"/>
		<path d="M 371.02785,105.44112 C 371.02785,107.20583 372.20433,108.97053 374.26315,108.97053 C 376.32193,108.97053 378.96897,107.79405 378.67486,101.32352 C 375.43959,101.32352 371.02785,101.02941 371.02785,105.44112 z M 378.67486,108.38231 L 378.67486,108.38231 C 377.49841,110.73524 376.02782,111.91169 373.38078,111.91169 C 368.96903,111.91169 367.79258,108.97053 367.79258,105.14701 C 367.79258,98.97059 373.969,98.676478 378.67486,98.676478 C 378.67486,96.029436 378.67486,93.088282 375.14548,93.088282 C 372.79255,93.088282 371.6161,94.558843 371.91022,96.61766 L 368.3808,96.61766 C 368.3808,91.911801 371.02785,90.441208 375.14548,90.441208 C 380.43957,90.441208 381.91016,93.088282 381.91016,96.61766 L 381.91016,106.6176 C 381.91016,108.08817 382.20427,109.85287 382.20427,111.32346 L 378.67486,111.32346 L 378.67486,108.38231 z" fill="#000"/>
		<path d="M 387.20424,111.32346 L 390.73362,111.32346 L 390.73362,81.911857 L 387.20424,81.911857 L 387.20424,111.32346 z" fill="#000"/>
	</g>
</svg>