<?xml version="1.0" encoding="UTF-8" standalone="no"?>
<!-- Created with Inkscape (http://www.inkscape.org/) -->
<svg version="1.1" xmlns:svg="http://www.w3.org/2000/svg" xmlns="http://www.w3.org/2000/svg" x="0" y="0" width="523" height="200" viewBox="0 0 523 200">
	<g>
		<path d="M 500.58153,153.43033 C 500.58153,166.56893 490.07061,177.07984 476.64005,177.07984 L 46.861512,177.07984 C 33.722878,177.07984 22.920031,166.56893 22.920031,153.43033 L 22.920031,46.861591 C 22.920031,33.722989 33.722878,22.920142 46.861512,22.920142 L 476.64005,22.920142 C 490.07061,22.920142 500.58153,33.722989 500.58153,46.861591 L 500.58153,153.43033 z" fill="none" stroke="#FFF" stroke-width="45.84028625" stroke-miterlimit="4" stroke-dasharray="none"/>
		<path d="M 261.16685,181.16739 L 46.277581,181.16739 C 33.138947,181.16739 22.3361,170.36454 22.3361,157.51791 L 22.3361,50.94917 C 22.3361,37.810568 33.138947,27.007689 46.277581,27.007689 L 261.16685,27.007689 L 261.16685,181.16739 z" fill="#FFF"/>
		<path d="M 261.16685,181.16739 L 46.277581,181.16739 C 33.138947,181.16739 22.3361,170.36454 22.3361,157.51791 L 22.3361,50.94917 C 22.3361,37.810568 33.138947,27.007689 46.277581,27.007689 L 261.16685,27.007689" fill="none" stroke="#000" stroke-width="2.0437839"/>
		<path d="M 46.277581,27.007689 C 33.138947,27.007689 22.3361,37.810568 22.3361,50.94917 L 22.3361,157.51791 C 22.3361,170.36454 33.138947,181.16739 46.277581,181.16739 L 261.16685,181.16739 L 261.16685,27.007689 L 46.277581,27.007689 z" fill="#FFFF00" fill-opacity="1" stroke="#000" stroke-width="2.0437839"/>
		<path d="M 120.43771,86.861359 L 110.51076,86.861359 L 110.51076,101.75179 L 120.43771,101.75179 C 125.40119,101.75179 128.32088,98.832099 128.32088,94.452587 C 128.32088,89.781077 125.40119,86.861359 120.43771,86.861359 z M 121.02164,111.38677 L 110.51076,111.38677 L 110.51076,131.8246 L 99.999882,131.8246 L 99.999882,77.226406 L 121.02164,77.226406 C 132.40845,77.226406 139.12375,85.109567 139.12375,94.452587 C 139.12375,103.50361 132.40845,111.38677 121.02164,111.38677 z" fill="#000"/>
		<path d="M 178.53959,125.98523 C 174.16005,130.65674 168.90461,132.40857 163.0652,132.40857 C 157.22583,132.40857 152.26236,130.07281 148.46674,126.2772 C 142.91934,120.72979 143.2113,114.01449 143.2113,104.6715 C 143.2113,95.036518 142.91934,88.321218 148.46674,82.773812 C 152.26236,78.978198 156.93387,76.934408 163.0652,76.934408 C 175.91184,76.934408 182.33517,85.109567 183.79503,94.452587 L 172.99215,94.452587 C 171.82429,89.197114 168.61264,86.277428 163.0652,86.277428 C 160.43748,86.277428 157.80976,87.445322 156.34993,89.197114 C 154.30615,91.532869 153.72221,94.16059 153.72221,104.6715 C 153.72221,115.18238 154.30615,117.51814 156.34993,119.85389 C 157.80976,121.60569 160.43748,122.77358 163.0652,122.77358 C 166.27689,122.77358 168.90461,121.60569 170.6564,119.85389 C 172.40822,117.8101 173.28412,115.18238 173.28412,112.55466 L 173.28412,110.51087 L 163.0652,110.51087 L 163.0652,101.45982 L 183.79503,101.45982 L 183.79503,109.34298 C 183.79503,117.22617 182.33517,122.18965 178.53959,125.98523 z" fill="#000"/>
		<path d="M 194.30591,66.423527 C 194.30591,69.927175 194.30591,138.5399 194.30591,141.75155 C 191.09426,141.75155 92.700651,141.75155 89.489,141.75155 C 89.489,138.5399 89.489,69.927175 89.489,66.423527 C 92.700651,66.423527 191.09426,66.423527 194.30591,66.423527 z M 196.05774,62.91991 L 85.985352,62.91991 L 85.985352,145.2552 L 197.80953,145.2552 L 197.80953,62.91991 L 196.05774,62.91991 z" fill="#000"/>
		<path d="M 261.16685,27.007689 L 261.16685,181.16739" fill="none" stroke="#000" stroke-width="2.0437839"/>
		<path d="M 261.75078,27.007689 L 261.75078,181.16739 L 476.64005,181.16739 C 489.77865,181.16739 500.58153,170.36454 500.58153,157.51791 L 500.58153,50.94917 C 500.58153,37.810568 489.77865,27.007689 476.64005,27.007689 L 261.75078,27.007689 z" fill="#FFF" stroke="#000" stroke-width="2.0437839"/>
		<path d="M 273.42955,83.065777 L 275.76528,83.065777 L 275.76528,75.182616 C 276.64121,75.182616 277.22514,75.182616 278.10103,75.182616 C 280.43679,75.182616 282.77254,74.598685 284.2324,73.138826 C 285.1083,71.970965 285.69223,70.511106 285.69223,68.759282 C 285.69223,67.00749 285.1083,65.547631 283.94044,64.671735 C 282.77254,63.503841 280.72875,62.91991 278.39303,62.91991 C 276.05727,62.91991 274.59742,62.91991 273.42955,63.211876 L 273.42955,83.065777 z M 275.76528,65.255665 C 276.34924,64.9637 277.22514,64.9637 278.39303,64.9637 C 281.31272,64.9637 283.06451,66.131562 283.06451,68.759282 C 283.06451,71.678968 281.31272,73.138826 278.10103,73.138826 C 277.22514,73.138826 276.34924,73.138826 275.76528,72.846861 L 275.76528,65.255665 z" fill="#000"/>
		<path d="M 297.66297,74.306688 C 297.66297,71.387002 296.78707,68.467317 292.11556,68.467317 C 290.36374,68.467317 288.61195,68.759282 287.44405,69.63521 L 288.02798,71.387002 C 289.19588,70.803071 290.6557,70.219141 291.8236,70.219141 C 294.74328,70.219141 295.03525,72.554896 295.03525,73.722757 L 295.03525,74.014723 C 289.48784,74.014723 286.56816,75.766547 286.56816,79.270163 C 286.56816,81.313953 288.02798,83.649708 290.9477,83.649708 C 292.99146,83.649708 294.45132,82.481846 295.32721,81.313953 L 295.32721,81.313953 L 295.61918,83.065777 L 297.95493,83.065777 C 297.95493,82.189881 297.66297,81.021988 297.66297,79.854126 L 297.66297,74.306688 z M 295.32721,78.394267 C 295.32721,78.686233 295.03525,78.978198 295.03525,79.270163 C 294.74328,80.438057 293.57542,81.605918 291.53163,81.605918 C 290.36374,81.605918 289.19588,80.730022 289.19588,78.978198 C 289.19588,76.350478 292.40753,75.766547 295.32721,75.766547 L 295.32721,78.394267 z" fill="#000"/>
		<path d="M 301.16662,83.065777 L 303.79434,83.065777 L 303.79434,75.474581 C 303.79434,74.890651 303.79434,74.598685 304.0863,74.306688 C 304.37827,72.26293 305.54613,70.803071 307.58992,70.803071 C 307.88188,70.803071 308.17385,70.803071 308.46585,71.095037 L 308.46585,68.467317 C 308.17385,68.467317 307.88188,68.467317 307.58992,68.467317 C 305.83813,68.467317 304.37827,69.63521 303.79434,71.678968 L 303.50237,71.678968 L 303.50237,68.759282 L 301.16662,68.759282 C 301.16662,69.927175 301.16662,71.387002 301.16662,73.138826 L 301.16662,83.065777 z" fill="#000"/>
		<path d="M 321.60445,76.350478 C 321.60445,76.058512 321.60445,75.766547 321.60445,75.182616 C 321.60445,72.554896 320.43656,68.467317 315.76508,68.467317 C 311.38553,68.467317 309.04978,71.970965 309.04978,76.058512 C 309.04978,80.438057 311.6775,83.649708 316.05704,83.649708 C 318.3928,83.649708 319.85262,83.065777 320.72855,82.481846 L 320.43656,80.730022 C 319.56066,81.021988 318.3928,81.313953 316.34901,81.313953 C 313.72129,81.313953 311.38553,79.854126 311.38553,76.350478 L 321.60445,76.350478 z M 311.38553,74.598685 C 311.6775,72.846861 312.84536,70.219141 315.47308,70.219141 C 318.3928,70.219141 319.26869,72.846861 319.26869,74.598685 L 311.38553,74.598685 z" fill="#000"/>
		<path d="M 324.23217,83.065777 L 326.85989,83.065777 L 326.85989,74.598685 C 326.85989,74.014723 326.85989,73.722757 327.15185,73.138826 C 327.44382,71.678968 328.90368,70.511106 330.65547,70.511106 C 332.99123,70.511106 333.86715,72.554896 333.86715,74.890651 L 333.86715,83.065777 L 336.49487,83.065777 L 336.49487,74.598685 C 336.49487,69.63521 333.57519,68.467317 331.5314,68.467317 C 328.90368,68.467317 327.44382,69.63521 326.56792,71.095037 L 326.56792,71.095037 L 326.56792,68.759282 L 324.23217,68.759282 C 324.23217,69.927175 324.23217,71.095037 324.23217,72.554896 L 324.23217,83.065777 z" fill="#000"/>
		<path d="M 340.58242,66.131562 L 340.58242,68.759282 L 338.2467,68.759282 L 338.2467,70.803071 L 340.58242,70.803071 L 340.58242,78.686233 C 340.58242,80.438057 340.87442,81.605918 341.45835,82.481846 C 342.33425,83.065777 343.21017,83.649708 344.37804,83.649708 C 345.5459,83.649708 346.12986,83.357743 346.71379,83.065777 L 346.71379,81.021988 C 346.12986,81.313953 345.83789,81.313953 344.96197,81.313953 C 343.50214,81.313953 343.21017,80.438057 343.21017,78.394267 L 343.21017,70.803071 L 347.00576,70.803071 L 347.00576,68.759282 L 343.21017,68.759282 L 343.21017,65.255665 L 340.58242,66.131562 z" fill="#000"/>
		<path d="M 359.26846,74.306688 C 359.26846,71.387002 358.10057,68.467317 353.72106,68.467317 C 351.96923,68.467317 350.21741,68.759282 349.04955,69.63521 L 349.63348,71.387002 C 350.50937,70.803071 351.96923,70.219141 353.42909,70.219141 C 356.34878,70.219141 356.64074,72.554896 356.64074,73.722757 L 356.64074,74.014723 C 351.09334,74.014723 347.88165,75.766547 347.88165,79.270163 C 347.88165,81.313953 349.34151,83.649708 352.2612,83.649708 C 354.30499,83.649708 356.05681,82.481846 356.93271,81.313953 L 356.93271,81.313953 L 357.22467,83.065777 L 359.56043,83.065777 C 359.26846,82.189881 359.26846,81.021988 359.26846,79.854126 L 359.26846,74.306688 z M 356.64074,78.394267 C 356.64074,78.686233 356.64074,78.978198 356.64074,79.270163 C 356.05681,80.438057 354.88892,81.605918 353.13709,81.605918 C 351.67727,81.605918 350.50937,80.730022 350.50937,78.978198 C 350.50937,76.350478 353.72106,75.766547 356.64074,75.766547 L 356.64074,78.394267 z" fill="#000"/>
		<path d="M 362.77208,83.065777 L 365.3998,83.065777 L 365.3998,62.044014 L 362.77208,62.044014 L 362.77208,83.065777 z" fill="#000"/>
		<path d="M 285.69223,102.62771 C 285.69223,100.87589 285.69223,99.708027 285.69223,98.540134 L 283.3565,98.540134 L 283.3565,100.87589 L 283.06451,100.87589 C 282.48058,99.708027 281.31272,98.248169 278.68499,98.248169 C 275.47331,98.248169 272.26166,101.16785 272.26166,105.83936 C 272.26166,109.92694 274.59742,113.13859 278.39303,113.13859 C 280.43679,113.13859 282.18861,111.97073 283.06451,110.51087 L 283.06451,110.51087 L 283.06451,112.2627 C 283.06451,115.76632 281.02075,117.22617 278.39303,117.22617 C 276.64121,117.22617 275.18135,116.64221 274.01348,116.05828 L 273.42955,118.10207 C 274.59742,118.97797 276.64121,119.26993 278.10103,119.26993 C 280.14482,119.26993 282.18861,118.97797 283.3565,117.51814 C 284.81633,116.35025 285.69223,114.30646 285.69223,111.09481 L 285.69223,102.62771 z M 283.06451,107.00726 C 283.06451,107.29922 282.77254,107.88315 282.77254,108.46708 C 282.18861,109.92694 280.72875,111.09481 278.97696,111.09481 C 276.34924,111.09481 274.88938,108.75905 274.88938,105.83936 C 274.88938,102.33575 276.64121,100.29196 279.26893,100.29196 C 281.02075,100.29196 282.18861,101.45982 282.77254,103.21164 C 283.06451,103.50361 283.06451,103.79557 283.06451,104.37951 L 283.06451,107.00726 z" fill="#000"/>
		<path d="M 301.16662,98.540134 L 298.5389,98.540134 L 298.5389,107.59119 C 298.5389,107.88315 298.5389,108.46708 298.5389,108.75905 C 297.95493,109.92694 296.78707,111.09481 295.03525,111.09481 C 292.69949,111.09481 291.8236,109.34298 291.8236,106.71526 L 291.8236,98.540134 L 289.19588,98.540134 L 289.19588,107.00726 C 289.19588,112.2627 291.8236,113.43056 294.15935,113.43056 C 296.78707,113.43056 298.2469,111.97073 298.83086,110.80284 L 298.83086,110.80284 L 299.12283,113.13859 L 301.45858,113.13859 C 301.45858,111.97073 301.16662,110.51087 301.16662,109.05102 L 301.16662,98.540134 z" fill="#000"/>
		<path d="M 307.58992,113.13859 L 307.58992,98.540134 L 304.9622,98.540134 L 304.9622,113.13859 L 307.58992,113.13859 z M 306.13009,92.992728 C 305.25416,92.992728 304.67023,93.576659 304.67023,94.452587 C 304.67023,95.328483 305.25416,96.204379 306.13009,96.204379 C 307.29795,96.204379 307.88188,95.328483 307.88188,94.452587 C 307.88188,93.576659 307.29795,92.992728 306.13009,92.992728 L 306.13009,92.992728 z" fill="#000"/>
		<path d="M 321.02052,91.824835 L 321.02052,100.58392 L 321.02052,100.58392 C 320.43656,99.416062 318.68476,98.248169 316.64097,98.248169 C 313.13732,98.248169 310.21764,101.16785 310.21764,106.13133 C 310.21764,110.51087 312.84536,113.43056 316.34901,113.43056 C 318.68476,113.43056 320.43656,112.2627 321.31248,110.51087 L 321.31248,110.51087 L 321.31248,113.13859 L 323.64824,113.13859 C 323.64824,111.97073 323.64824,110.51087 323.64824,109.34298 L 323.64824,91.824835 L 321.02052,91.824835 z M 321.02052,107.00726 C 321.02052,107.29922 321.02052,107.88315 321.02052,108.17512 C 320.43656,110.21891 318.68476,111.38677 316.93294,111.38677 C 314.30522,111.38677 312.84536,108.75905 312.84536,105.83936 C 312.84536,102.62771 314.30522,100.29196 317.2249,100.29196 C 318.97673,100.29196 320.43656,101.75179 321.02052,103.50361 C 321.02052,103.79557 321.02052,104.08754 321.02052,104.37951 L 321.02052,107.00726 z" fill="#000"/>
		<path d="M 337.37077,104.08754 C 337.37077,101.16785 336.49487,98.248169 331.82336,98.248169 C 330.07154,98.248169 328.31975,98.832099 327.15185,99.708027 L 327.73579,101.16785 C 328.90368,100.58392 330.07154,100.29196 331.5314,100.29196 C 334.45109,100.29196 334.74305,102.33575 334.74305,103.50361 L 334.74305,103.79557 C 329.19564,103.79557 326.27596,105.83936 326.27596,109.34298 C 326.27596,111.38677 327.73579,113.43056 330.65547,113.43056 C 332.69926,113.43056 334.15912,112.2627 335.03502,111.38677 L 335.03502,111.38677 L 335.32698,113.13859 L 337.66274,113.13859 C 337.37077,111.97073 337.37077,110.80284 337.37077,109.63498 L 337.37077,104.08754 z M 335.03502,108.17512 C 335.03502,108.46708 334.74305,108.75905 334.74305,109.05102 C 334.45109,110.21891 332.99123,111.38677 331.23943,111.38677 C 329.77958,111.38677 328.90368,110.80284 328.90368,109.05102 C 328.90368,106.13133 332.11533,105.5474 335.03502,105.83936 L 335.03502,108.17512 z" fill="#000"/>
		<path d="M 340.87442,113.13859 L 343.50214,113.13859 L 343.50214,104.37951 C 343.50214,103.79557 343.50214,103.50361 343.79411,103.21164 C 344.08607,101.75179 345.5459,100.58392 347.29772,100.58392 C 349.63348,100.58392 350.50937,102.33575 350.50937,104.6715 L 350.50937,113.13859 L 353.13709,113.13859 L 353.13709,104.37951 C 353.13709,99.416062 350.21741,98.248169 348.17365,98.248169 C 345.83789,98.248169 344.08607,99.708027 343.50214,100.87589 L 343.21017,100.87589 L 343.21017,98.540134 L 340.87442,98.540134 C 340.87442,99.708027 340.87442,101.16785 340.87442,102.62771 L 340.87442,113.13859 z" fill="#000"/>
		<path d="M 366.56769,110.51087 C 365.98376,110.80284 364.81587,111.38677 363.35604,111.38677 C 360.43632,111.38677 358.39257,109.34298 358.39257,105.83936 C 358.39257,102.91968 360.14436,100.29196 363.64801,100.29196 C 364.81587,100.29196 365.98376,100.87589 366.56769,101.16785 L 367.15162,99.124065 C 366.56769,98.832099 365.10783,98.248169 363.64801,98.248169 C 358.68453,98.248169 355.76485,101.45982 355.76485,106.13133 C 355.76485,110.51087 358.68453,113.43056 363.06404,113.43056 C 364.81587,113.43056 366.27573,112.84663 367.15162,112.55466 L 366.56769,110.51087 z" fill="#000"/>
		<path d="M 380.87419,106.4233 C 380.87419,106.13133 380.87419,105.5474 380.87419,104.96347 C 380.87419,102.33575 379.70629,98.248169 375.03478,98.248169 C 370.65527,98.248169 368.31952,101.75179 368.31952,106.13133 C 368.31952,110.51087 370.94724,113.43056 375.32675,113.43056 C 377.6625,113.43056 379.12236,112.84663 379.99826,112.55466 L 379.70629,110.51087 C 378.8304,111.09481 377.6625,111.38677 375.61872,111.38677 C 372.99099,111.38677 370.65527,109.92694 370.65527,106.4233 L 380.87419,106.4233 z M 370.65527,104.37951 C 370.94724,102.62771 372.1151,100.29196 374.74282,100.29196 C 377.6625,100.29196 378.53843,102.62771 378.53843,104.37951 L 370.65527,104.37951 z" fill="#000"/>
		<path d="M 275.76528,128.02902 L 273.13756,128.02902 L 273.13756,142.91945 L 275.76528,142.91945 L 275.76528,134.16036 C 275.76528,133.57643 275.76528,132.9925 275.76528,132.70053 C 276.05727,132.1166 276.05727,131.53264 276.34924,131.24067 C 276.64121,130.94871 276.93317,130.65674 277.5171,130.36478 C 277.80907,130.07281 278.39303,130.07281 279.26893,130.07281 C 279.26893,130.07281 279.26893,130.07281 279.56089,130.07281 C 279.56089,130.07281 279.56089,130.07281 279.85286,130.07281 C 279.85286,130.07281 280.14482,130.07281 280.14482,130.07281 C 280.14482,130.07281 280.43679,130.07281 280.43679,130.07281 L 280.43679,127.44509 C 279.85286,127.44509 279.26893,127.73706 278.97696,127.73706 C 278.39303,127.73706 278.10103,127.73706 277.5171,128.02902 C 277.22514,128.32099 276.93317,128.32099 276.64121,128.90492 C 276.34924,129.19688 276.05727,129.48888 275.76528,130.07281 L 275.76528,130.07281 L 275.76528,128.02902 z" fill="#000"/>
		<path d="M 284.81633,134.45235 C 284.81633,133.28446 284.81633,132.40857 285.1083,131.8246 C 285.1083,131.24067 285.40026,130.65674 285.69223,130.36478 C 285.98423,130.07281 286.27619,129.78085 286.56816,129.48888 C 286.86012,129.48888 287.15209,129.48888 287.73602,129.48888 C 288.02798,129.48888 288.61195,129.48888 288.90391,129.48888 C 289.19588,129.78085 289.48784,129.78085 289.77981,130.36478 C 290.07177,130.65674 290.36374,131.24067 290.36374,131.8246 C 290.6557,132.40857 290.6557,133.28446 290.6557,134.45235 L 284.81633,134.45235 z M 293.28346,136.20415 L 293.28346,135.03629 C 293.28346,133.57643 293.28346,132.70053 292.99146,131.8246 C 292.99146,130.65674 292.69949,130.07281 292.11556,129.48888 C 291.8236,128.90492 291.23967,128.32099 290.6557,128.02902 C 289.77981,127.73706 288.90391,127.44509 288.02798,127.44509 C 286.56816,127.44509 285.40026,127.73706 284.81633,128.32099 C 283.94044,128.61295 283.3565,129.19688 283.06451,130.07281 C 282.77254,130.65674 282.48058,131.53264 282.18861,132.40857 C 282.18861,133.57643 282.18861,134.45235 282.18861,135.62022 C 282.18861,137.37204 282.18861,138.5399 282.48058,139.7078 C 282.77254,140.58369 283.3565,141.45959 283.94044,142.04355 C 284.2324,142.62748 284.81633,142.91945 285.69223,142.91945 C 286.27619,143.21141 287.15209,143.21141 288.02798,143.21141 C 289.48784,143.21141 290.6557,142.91945 291.8236,142.04355 C 292.69949,141.45959 292.99146,139.99976 293.28346,138.5399 L 290.36374,138.5399 C 290.36374,138.83187 290.36374,139.12383 290.36374,139.41583 C 290.07177,139.7078 290.07177,140.29173 289.77981,140.29173 C 289.48784,140.58369 289.19588,140.87566 288.90391,141.16762 C 288.61195,141.16762 288.31998,141.16762 287.73602,141.16762 C 287.44405,141.16762 286.86012,141.16762 286.56816,141.16762 C 286.27619,140.87566 285.98423,140.58369 285.69223,140.29173 C 285.40026,139.99976 285.1083,139.41583 285.1083,138.83187 C 284.81633,138.24794 284.81633,137.37204 284.81633,136.20415 L 293.28346,136.20415 z" fill="#000"/>
		<path d="M 307.00599,132.70053 C 307.00599,130.94871 306.71402,129.78085 305.83813,128.90492 C 304.9622,128.02902 303.79434,127.44509 302.33448,127.44509 C 301.16662,127.44509 299.99872,127.73706 299.41479,128.32099 C 298.5389,128.61295 297.95493,129.19688 297.66297,130.07281 C 297.07904,130.65674 296.78707,131.53264 296.78707,132.40857 C 296.78707,133.57643 296.78707,134.45235 296.78707,135.62022 C 296.78707,137.37204 296.78707,138.5399 297.07904,139.7078 C 297.371,140.58369 297.95493,141.45959 298.2469,142.04355 C 298.83086,142.62748 299.41479,142.91945 300.29069,142.91945 C 300.87465,143.21141 301.45858,143.21141 302.33448,143.21141 C 302.91841,143.21141 303.21037,143.21141 303.79434,142.91945 C 304.37827,142.91945 304.9622,142.62748 305.54613,142.33552 C 305.83813,141.75155 306.42206,141.16762 306.71402,140.58369 C 307.00599,139.99976 307.29795,139.12383 307.00599,137.95597 L 304.67023,137.95597 C 304.67023,138.5399 304.37827,139.12383 304.37827,139.7078 C 304.0863,139.99976 304.0863,140.29173 303.79434,140.58369 C 303.50237,140.87566 303.21037,141.16762 302.91841,141.16762 C 302.62644,141.16762 302.62644,141.16762 302.33448,141.16762 C 301.75055,141.16762 301.16662,141.16762 300.87465,140.87566 C 300.29069,140.58369 299.99872,140.29173 299.99872,139.7078 C 299.70676,139.41583 299.41479,138.5399 299.41479,137.66401 C 299.41479,136.78808 299.12283,135.91218 299.12283,134.74432 C 299.12283,133.57643 299.41479,132.70053 299.41479,132.1166 C 299.70676,131.53264 299.70676,130.94871 299.99872,130.65674 C 300.29069,130.07281 300.58265,130.07281 301.16662,129.78085 C 301.45858,129.78085 302.04251,129.48888 302.33448,129.48888 C 302.62644,129.48888 302.91841,129.48888 303.21037,129.78085 C 303.50237,129.78085 303.50237,130.07281 303.79434,130.36478 C 304.0863,130.36478 304.0863,130.65674 304.37827,131.24067 C 304.37827,131.53264 304.37827,132.1166 304.37827,132.70053 L 307.00599,132.70053 z" fill="#000"/>
		<path d="M 314.59718,140.87566 C 314.01325,140.58369 313.72129,140.29173 313.72129,139.7078 C 313.42932,139.41583 313.13732,138.5399 313.13732,137.66401 C 313.13732,136.78808 312.84536,135.91218 312.84536,134.74432 C 312.84536,133.57643 313.13732,132.70053 313.13732,132.1166 C 313.42932,131.53264 313.42932,130.94871 313.72129,130.65674 C 314.01325,130.07281 314.30522,130.07281 314.88915,129.78085 C 315.18111,129.78085 315.76508,129.48888 316.05704,129.48888 C 316.64097,129.48888 316.93294,129.78085 317.51687,129.78085 C 317.80883,130.07281 318.1008,130.07281 318.3928,130.65674 C 318.68476,130.94871 318.97673,131.53264 318.97673,132.1166 C 319.26869,132.70053 319.26869,133.57643 319.26869,134.74432 C 319.26869,135.91218 319.26869,136.78808 319.26869,137.66401 C 318.97673,138.5399 318.97673,139.41583 318.68476,139.7078 C 318.3928,140.29173 318.1008,140.58369 317.80883,140.87566 C 317.2249,141.16762 316.64097,141.16762 316.05704,141.16762 C 315.47308,141.16762 314.88915,141.16762 314.59718,140.87566 L 314.59718,140.87566 z M 318.3928,142.91945 C 318.97673,142.91945 319.56066,142.62748 320.14459,142.04355 C 320.72855,141.45959 321.02052,140.58369 321.31248,139.7078 C 321.60445,138.5399 321.89641,137.37204 321.89641,135.62022 C 321.89641,134.45235 321.89641,133.57643 321.60445,132.40857 C 321.60445,131.53264 321.31248,130.65674 321.02052,130.07281 C 320.43656,129.19688 319.85262,128.61295 319.26869,128.32099 C 318.3928,127.73706 317.51687,127.44509 316.05704,127.44509 C 314.88915,127.44509 313.72129,127.73706 313.13732,128.32099 C 312.26143,128.61295 311.6775,129.19688 311.38553,130.07281 C 310.8016,130.65674 310.5096,131.53264 310.5096,132.40857 C 310.5096,133.57643 310.5096,134.45235 310.5096,135.62022 C 310.5096,137.37204 310.5096,138.5399 310.8016,139.7078 C 311.09357,140.58369 311.6775,141.45959 311.96946,142.04355 C 312.55339,142.62748 313.13732,142.91945 314.01325,142.91945 C 314.59718,143.21141 315.18111,143.21141 316.05704,143.21141 C 316.93294,143.21141 317.80883,143.21141 318.3928,142.91945 L 318.3928,142.91945 z" fill="#000"/>
		<path d="M 334.74305,142.91945 L 334.74305,132.70053 C 334.74305,132.70053 334.74305,132.40857 335.03502,132.1166 C 335.03502,132.1166 335.03502,131.8246 335.03502,131.53264 C 335.03502,131.24067 335.03502,130.94871 335.32698,130.65674 C 335.32698,130.65674 335.61895,130.36478 335.61895,130.07281 C 335.91094,129.78085 336.20291,129.78085 336.49487,129.78085 C 336.78684,129.48888 337.07881,129.48888 337.66274,129.48888 C 337.9547,129.48888 338.53866,129.78085 338.83063,129.78085 C 339.1226,130.07281 339.41456,130.07281 339.41456,130.36478 C 339.70653,130.65674 339.70653,130.94871 339.99849,131.53264 C 339.99849,131.8246 339.99849,132.1166 339.99849,132.40857 L 339.99849,142.91945 L 342.33425,142.91945 L 342.33425,131.53264 C 342.33425,130.65674 342.33425,129.78085 342.04228,129.48888 C 341.75032,128.90492 341.45835,128.32099 340.87442,128.32099 C 340.58242,128.02902 339.99849,127.73706 339.70653,127.73706 C 339.1226,127.73706 338.53866,127.44509 338.2467,127.44509 C 337.66274,127.44509 336.78684,127.73706 336.20291,128.02902 C 335.61895,128.32099 335.03502,128.61295 334.74305,129.48888 C 334.45109,129.19688 334.45109,128.90492 334.15912,128.61295 C 333.86715,128.32099 333.57519,128.32099 333.28322,128.02902 C 332.99123,128.02902 332.69926,127.73706 332.11533,127.73706 C 331.82336,127.73706 331.5314,127.44509 331.23943,127.44509 C 330.36351,127.44509 329.48761,127.73706 328.90368,128.02902 C 328.31975,128.32099 327.73579,128.90492 327.44382,129.78085 L 327.44382,129.78085 L 327.44382,128.02902 L 324.8161,128.02902 C 324.8161,128.32099 324.8161,128.90492 324.8161,129.48888 C 324.8161,130.07281 324.8161,130.65674 324.8161,130.94871 L 324.8161,142.91945 L 327.44382,142.91945 L 327.44382,132.70053 C 327.44382,132.40857 327.44382,132.1166 327.44382,131.8246 C 327.44382,131.24067 327.73579,130.94871 328.02775,130.65674 C 328.02775,130.36478 328.31975,130.07281 328.90368,129.78085 C 329.19564,129.78085 329.48761,129.48888 330.07154,129.48888 C 330.65547,129.48888 330.94747,129.78085 331.23943,129.78085 C 331.5314,130.07281 331.82336,130.07281 331.82336,130.36478 C 332.11533,130.65674 332.4073,130.94871 332.4073,131.53264 C 332.4073,131.8246 332.4073,132.1166 332.4073,132.40857 L 332.4073,142.91945 L 334.74305,142.91945 z" fill="#000"/>
		<path d="M 355.76485,142.91945 L 355.76485,132.70053 C 355.76485,132.70053 355.76485,132.40857 355.76485,132.1166 C 355.76485,132.1166 355.76485,131.8246 355.76485,131.53264 C 356.05681,131.24067 356.05681,130.94871 356.05681,130.65674 C 356.34878,130.65674 356.34878,130.36478 356.64074,130.07281 C 356.93271,129.78085 357.22467,129.78085 357.51664,129.78085 C 357.51664,129.48888 357.8086,129.48888 358.39257,129.48888 C 358.9765,129.48888 359.26846,129.78085 359.56043,129.78085 C 359.85239,130.07281 360.14436,130.07281 360.43632,130.36478 C 360.43632,130.65674 360.72832,130.94871 360.72832,131.53264 C 360.72832,131.8246 360.72832,132.1166 360.72832,132.40857 L 360.72832,142.91945 L 363.35604,142.91945 L 363.35604,131.53264 C 363.35604,130.65674 363.06404,129.78085 362.77208,129.48888 C 362.48011,128.90492 362.18815,128.32099 361.89618,128.32099 C 361.31225,128.02902 361.02029,127.73706 360.43632,127.73706 C 359.85239,127.73706 359.56043,127.44509 358.9765,127.44509 C 358.39257,127.44509 357.8086,127.73706 357.22467,128.02902 C 356.34878,128.32099 356.05681,128.61295 355.47285,129.48888 C 355.47285,129.19688 355.18088,128.90492 354.88892,128.61295 C 354.59695,128.32099 354.30499,128.32099 354.01302,128.02902 C 353.72106,128.02902 353.42909,127.73706 353.13709,127.73706 C 352.55316,127.73706 352.2612,127.44509 351.96923,127.44509 C 351.09334,127.44509 350.21741,127.73706 349.63348,128.02902 C 349.04955,128.32099 348.46562,128.90492 348.17365,129.78085 L 348.17365,129.78085 L 348.17365,128.02902 L 345.5459,128.02902 C 345.5459,128.32099 345.5459,128.90492 345.5459,129.48888 C 345.83789,130.07281 345.83789,130.65674 345.83789,130.94871 L 345.83789,142.91945 L 348.17365,142.91945 L 348.17365,132.70053 C 348.17365,132.40857 348.17365,132.1166 348.17365,131.8246 C 348.46562,131.24067 348.46562,130.94871 348.75758,130.65674 C 349.04955,130.36478 349.34151,130.07281 349.63348,129.78085 C 350.21741,129.78085 350.50937,129.48888 350.80137,129.48888 C 351.3853,129.48888 351.67727,129.78085 351.96923,129.78085 C 352.2612,130.07281 352.55316,130.07281 352.84513,130.36478 C 352.84513,130.65674 353.13709,130.94871 353.13709,131.53264 C 353.13709,131.8246 353.13709,132.1166 353.13709,132.40857 L 353.13709,142.91945 L 355.76485,142.91945 z" fill="#000"/>
		<path d="M 369.19541,134.45235 C 369.19541,133.28446 369.19541,132.40857 369.19541,131.8246 C 369.48738,131.24067 369.77934,130.65674 370.07131,130.36478 C 370.07131,130.07281 370.36327,129.78085 370.94724,129.48888 C 371.2392,129.48888 371.53117,129.48888 371.82313,129.48888 C 372.40706,129.48888 372.69903,129.48888 373.28299,129.48888 C 373.57496,129.78085 373.86692,129.78085 374.15889,130.36478 C 374.45085,130.65674 374.74282,131.24067 374.74282,131.8246 C 375.03478,132.40857 375.03478,133.28446 375.03478,134.45235 L 369.19541,134.45235 z M 377.6625,136.20415 L 377.6625,135.03629 C 377.6625,133.57643 377.37054,132.70053 377.37054,131.8246 C 377.07857,130.65674 376.78661,130.07281 376.49464,129.48888 C 376.20268,128.90492 375.61872,128.32099 374.74282,128.02902 C 374.15889,127.73706 373.28299,127.44509 372.1151,127.44509 C 370.94724,127.44509 369.77934,127.73706 369.19541,128.32099 C 368.31952,128.61295 367.73555,129.19688 367.44359,130.07281 C 366.85966,130.65674 366.56769,131.53264 366.56769,132.40857 C 366.56769,133.57643 366.56769,134.45235 366.56769,135.62022 C 366.56769,137.37204 366.56769,138.5399 366.85966,139.7078 C 367.15162,140.58369 367.73555,141.45959 368.02752,142.04355 C 368.61148,142.62748 369.19541,142.91945 370.07131,142.91945 C 370.65527,143.21141 371.2392,143.21141 372.1151,143.21141 C 373.86692,143.21141 375.03478,142.91945 375.91071,142.04355 C 377.07857,141.45959 377.37054,139.99976 377.37054,138.5399 L 374.74282,138.5399 C 374.74282,138.83187 374.74282,139.12383 374.45085,139.41583 C 374.45085,139.7078 374.15889,140.29173 374.15889,140.29173 C 373.86692,140.58369 373.57496,140.87566 373.28299,141.16762 C 372.99099,141.16762 372.40706,141.16762 372.1151,141.16762 C 371.53117,141.16762 371.2392,141.16762 370.94724,141.16762 C 370.36327,140.87566 370.07131,140.58369 369.77934,140.29173 C 369.48738,139.99976 369.48738,139.41583 369.19541,138.83187 C 369.19541,138.24794 369.19541,137.37204 369.19541,136.20415 L 377.6625,136.20415 z" fill="#000"/>
		<path d="M 391.38507,142.91945 L 391.38507,132.40857 C 391.38507,131.8246 391.38507,131.24067 391.38507,130.36478 C 391.0931,129.78085 391.0931,129.48888 390.80114,128.90492 C 390.50914,128.61295 389.92521,128.02902 389.63324,128.02902 C 389.04931,127.73706 388.17342,127.44509 387.58946,127.44509 C 386.42159,127.44509 385.83766,127.73706 384.96174,128.02902 C 384.3778,128.32099 383.79387,128.90492 383.50191,129.78085 L 383.20994,129.78085 L 383.20994,128.02902 L 380.87419,128.02902 C 380.87419,128.32099 380.87419,128.90492 380.87419,129.48888 C 380.87419,130.07281 380.87419,130.65674 380.87419,130.94871 L 380.87419,142.91945 L 383.20994,142.91945 L 383.20994,134.16036 C 383.20994,133.57643 383.50191,132.9925 383.50191,132.40857 C 383.50191,131.8246 383.79387,131.53264 383.79387,130.94871 C 384.08584,130.65674 384.3778,130.36478 384.66977,130.07281 C 385.2537,129.78085 385.83766,129.48888 386.42159,129.48888 C 387.00552,129.48888 387.29749,129.78085 387.58946,129.78085 C 388.17342,130.07281 388.46538,130.07281 388.46538,130.36478 C 388.75735,130.65674 388.75735,130.94871 389.04931,131.24067 C 389.04931,131.8246 389.04931,132.1166 389.04931,132.40857 L 389.04931,142.91945 L 391.38507,142.91945 z" fill="#000"/>
		<path d="M 403.06381,137.08008 C 403.06381,137.95597 402.77185,138.5399 402.77185,139.12383 C 402.47988,139.7078 402.18792,140.29173 401.89595,140.58369 C 401.60399,141.16762 401.02005,141.16762 400.43609,141.16762 C 399.5602,141.16762 398.97626,141.16762 398.6843,140.58369 C 398.10037,140.29173 397.80837,139.99976 397.51641,139.41583 C 397.51641,138.83187 397.22444,138.24794 397.22444,137.66401 C 397.22444,136.78808 397.22444,136.20415 397.22444,135.62022 C 397.22444,134.74432 397.22444,133.86839 397.22444,132.9925 C 397.51641,132.40857 397.51641,131.53264 397.80837,131.24067 C 398.10037,130.65674 398.39233,130.36478 398.6843,130.07281 C 398.97626,129.78085 399.5602,129.48888 400.14413,129.48888 C 401.02005,129.48888 401.31202,129.78085 401.89595,130.07281 C 402.18792,130.36478 402.47988,130.94871 402.77185,131.53264 C 402.77185,132.1166 403.06381,132.40857 403.06381,133.28446 C 403.06381,133.86839 403.06381,134.45235 403.06381,134.74432 C 403.06381,135.62022 403.06381,136.20415 403.06381,137.08008 L 403.06381,137.08008 z M 403.06381,129.48888 L 403.06381,129.48888 C 402.47988,128.90492 402.18792,128.32099 401.60399,128.02902 C 401.02005,127.73706 400.43609,127.44509 399.5602,127.44509 C 398.39233,127.44509 397.51641,127.73706 396.93248,128.32099 C 396.05658,128.90492 395.76461,129.48888 395.18065,130.36478 C 394.88869,130.94871 394.88869,131.8246 394.88869,132.70053 C 394.59672,133.86839 394.59672,134.74432 394.59672,135.62022 C 394.59672,137.37204 394.88869,138.5399 395.18065,139.7078 C 395.47262,140.58369 395.76461,141.45959 396.05658,142.04355 C 396.64051,142.62748 397.22444,142.91945 397.80837,142.91945 C 398.39233,143.21141 398.97626,143.21141 399.5602,143.21141 C 400.43609,143.21141 401.02005,143.21141 401.60399,142.62748 C 402.18792,142.33552 402.47988,141.75155 403.06381,141.16762 L 403.06381,141.16762 L 403.06381,142.91945 L 405.39957,142.91945 L 405.39957,121.31372 L 403.06381,121.31372 L 403.06381,129.48888 z" fill="#000"/>
		<path d="M 411.8229,134.45235 C 411.8229,133.28446 411.8229,132.40857 411.8229,131.8246 C 412.11487,131.24067 412.40683,130.65674 412.40683,130.36478 C 412.6988,130.07281 412.99076,129.78085 413.57473,129.48888 C 413.86669,129.48888 414.15866,129.48888 414.45062,129.48888 C 415.03455,129.48888 415.32652,129.48888 415.91048,129.48888 C 416.20245,129.78085 416.49441,129.78085 416.78638,130.36478 C 417.07834,130.65674 417.07834,131.24067 417.37031,131.8246 C 417.37031,132.40857 417.66227,133.28446 417.66227,134.45235 L 411.8229,134.45235 z M 420.28999,136.20415 L 420.28999,135.03629 C 420.28999,133.57643 419.99803,132.70053 419.99803,131.8246 C 419.70606,130.65674 419.4141,130.07281 419.12213,129.48888 C 418.83017,128.90492 418.24624,128.32099 417.37031,128.02902 C 416.78638,127.73706 415.91048,127.44509 414.74259,127.44509 C 413.57473,127.44509 412.40683,127.73706 411.8229,128.32099 C 410.94701,128.61295 410.36304,129.19688 410.07108,130.07281 C 409.48715,130.65674 409.19518,131.53264 409.19518,132.40857 C 409.19518,133.57643 408.90322,134.45235 408.90322,135.62022 C 408.90322,137.37204 409.19518,138.5399 409.48715,139.7078 C 409.77911,140.58369 410.07108,141.45959 410.65504,142.04355 C 411.23897,142.62748 411.8229,142.91945 412.40683,142.91945 C 413.28276,143.21141 413.86669,143.21141 414.74259,143.21141 C 416.49441,143.21141 417.66227,142.91945 418.5382,142.04355 C 419.4141,141.45959 419.99803,139.99976 419.99803,138.5399 L 417.37031,138.5399 C 417.37031,138.83187 417.37031,139.12383 417.07834,139.41583 C 417.07834,139.7078 416.78638,140.29173 416.78638,140.29173 C 416.49441,140.58369 416.20245,140.87566 415.91048,141.16762 C 415.61852,141.16762 415.03455,141.16762 414.74259,141.16762 C 414.15866,141.16762 413.86669,141.16762 413.57473,141.16762 C 412.99076,140.87566 412.6988,140.58369 412.40683,140.29173 C 412.11487,139.99976 412.11487,139.41583 411.8229,138.83187 C 411.8229,138.24794 411.8229,137.37204 411.8229,136.20415 L 420.28999,136.20415 z" fill="#000"/>
		<path d="M 431.38484,137.08008 C 431.38484,137.95597 431.38484,138.5399 431.09287,139.12383 C 431.09287,139.7078 430.80091,140.29173 430.21694,140.58369 C 429.92498,141.16762 429.34105,141.16762 428.75712,141.16762 C 427.88119,141.16762 427.29726,141.16762 427.00529,140.58369 C 426.42136,140.29173 426.1294,139.99976 426.1294,139.41583 C 425.83743,138.83187 425.83743,138.24794 425.83743,137.66401 C 425.54547,136.78808 425.54547,136.20415 425.54547,135.62022 C 425.54547,134.74432 425.54547,133.86839 425.83743,132.9925 C 425.83743,132.40857 425.83743,131.53264 426.1294,131.24067 C 426.42136,130.65674 426.71333,130.36478 427.00529,130.07281 C 427.29726,129.78085 427.88119,129.48888 428.75712,129.48888 C 429.34105,129.48888 429.92498,129.78085 430.21694,130.07281 C 430.50891,130.36478 430.80091,130.94871 431.09287,131.53264 C 431.38484,132.1166 431.38484,132.40857 431.38484,133.28446 C 431.38484,133.86839 431.38484,134.45235 431.38484,134.74432 C 431.38484,135.62022 431.38484,136.20415 431.38484,137.08008 L 431.38484,137.08008 z M 431.38484,129.48888 L 431.38484,129.48888 C 431.09287,128.90492 430.50891,128.32099 429.92498,128.02902 C 429.34105,127.73706 428.75712,127.44509 428.17319,127.44509 C 426.71333,127.44509 425.83743,127.73706 425.25347,128.32099 C 424.66954,128.90492 424.08561,129.48888 423.79364,130.36478 C 423.50168,130.94871 423.20971,131.8246 423.20971,132.70053 C 423.20971,133.86839 423.20971,134.74432 423.20971,135.62022 C 423.20971,137.37204 423.20971,138.5399 423.50168,139.7078 C 423.79364,140.58369 424.08561,141.45959 424.66954,142.04355 C 424.9615,142.62748 425.54547,142.91945 426.1294,142.91945 C 426.71333,143.21141 427.29726,143.21141 427.88119,143.21141 C 428.75712,143.21141 429.34105,143.21141 429.92498,142.62748 C 430.50891,142.33552 431.09287,141.75155 431.38484,141.16762 L 431.38484,141.16762 L 431.38484,142.91945 L 434.01256,142.91945 L 434.01256,121.31372 L 431.38484,121.31372 L 431.38484,129.48888 z" fill="#000"/>
	</g>
</svg>