<?xml version="1.0" encoding="UTF-8" standalone="no"?>
<!-- Created with Inkscape (http://www.inkscape.org/) -->
<svg version="1.1" xmlns:svg="http://www.w3.org/2000/svg" xmlns="http://www.w3.org/2000/svg" x="0" y="0" width="523" height="200" viewBox="0 0 523 200">
	<g transform="matrix(3.022325,0,0,3.022325,-891.7061,-1028.05)">
		<path d="M 462.49455,391.13652 C 462.49455,395.54202 458.91508,399.12148 454.50958,399.12148 L 310.22958,399.12148 C 305.82409,399.12148 302.24462,395.54202 302.24462,391.13652 L 302.24462,355.34186 C 302.24462,351.02815 305.82409,347.3569 310.22958,347.3569 L 454.50958,347.3569 C 458.91508,347.3569 462.49455,351.02815 462.49455,355.34186 L 462.49455,391.13652 z" fill="none" stroke="#FFF" stroke-width="14.40964413"/>
		<path d="M 382.43842,399.07559 L 310.3902,399.07559 C 305.98471,399.07559 302.40524,395.49612 302.40524,391.09063 L 302.40524,355.38775 C 302.40524,350.98226 305.98471,347.40279 310.3902,347.40279 L 382.43842,347.40279 L 382.43842,399.07559 z" fill="#FFF"/>
		<path d="M 382.43842,399.07559 L 310.3902,399.07559 C 305.98471,399.07559 302.40524,395.49612 302.40524,391.09063 L 302.40524,355.38775 C 302.40524,350.98226 305.98471,347.40279 310.3902,347.40279 L 382.43842,347.40279" fill="none" stroke="#000" stroke-width="0.64246821"/>
		<path d="M 310.3902,347.40279 C 305.98471,347.40279 302.40524,350.98226 302.40524,355.38775 L 302.40524,391.09063 C 302.40524,395.49612 305.98471,399.07559 310.3902,399.07559 L 382.43842,399.07559 L 382.43842,347.40279 L 310.3902,347.40279 z" fill="#000" stroke="#000" stroke-width="0.64246821"/>
		<path d="M 382.43842,347.40279 L 382.43842,399.07559" fill="none" stroke="#000" stroke-width="1.28493643"/>
		<path d="M 351.78351,373.83577 L 351.78351,362.54668 L 349.3972,364.65765 L 349.3972,363.18915 L 351.78351,361.16997 L 353.06845,361.16997 L 353.06845,373.83577 L 351.78351,373.83577 z" fill="#FFF"/>
		<path d="M 358.6671,362.17956 C 357.38216,362.17956 356.46435,363.09737 356.46435,364.47409 C 356.46435,365.75902 357.38216,366.76862 358.6671,366.76862 C 359.95203,366.76862 360.86985,365.75902 360.86985,364.47409 C 360.86985,363.09737 359.95203,362.17956 358.6671,362.17956 z M 358.6671,367.86999 C 357.29038,367.86999 356.18901,368.97136 356.18901,370.34808 C 356.18901,371.7248 357.29038,372.82617 358.6671,372.82617 C 360.04382,372.82617 361.14519,371.7248 361.14519,370.34808 C 361.14519,368.97136 360.04382,367.86999 358.6671,367.86999 z M 358.6671,374.01933 C 356.55613,374.01933 354.90407,372.55083 354.90407,370.34808 C 354.90407,368.87958 355.7301,367.86999 356.83147,367.22752 C 355.82188,366.67684 355.17941,365.75902 355.17941,364.47409 C 355.17941,362.4549 356.64791,360.9864 358.6671,360.9864 C 360.68628,360.9864 362.15478,362.4549 362.15478,364.47409 C 362.15478,365.75902 361.51231,366.67684 360.50272,367.22752 C 361.6041,367.86999 362.43013,368.87958 362.43013,370.34808 C 362.43013,372.55083 360.77806,374.01933 358.6671,374.01933 z" fill="#FFF"/>
		<path d="M 368.67125,369.70561 L 368.67125,372.82617 L 367.47809,372.82617 L 367.47809,369.70561 L 364.26575,369.70561 L 364.26575,368.51246 L 367.47809,368.51246 L 367.47809,365.3919 L 368.67125,365.3919 L 368.67125,368.51246 L 371.79181,368.51246 L 371.79181,369.70561 L 368.67125,369.70561 z" fill="#FFF"/>
		<path d="M 330.76562,362.73025 L 327.64506,362.73025 L 327.64506,367.3193 L 330.76562,367.3193 C 332.3259,367.3193 333.24371,366.40149 333.24371,365.02477 C 333.24371,363.64806 332.3259,362.73025 330.76562,362.73025 z M 333.42728,377.04811 L 330.03137,370.16452 L 327.64506,370.16452 L 327.64506,377.04811 L 324.24916,377.04811 L 324.24916,359.70147 L 331.04097,359.70147 C 334.52865,359.70147 336.63962,362.08778 336.63962,365.02477 C 336.63962,367.41108 335.17112,368.97136 333.42728,369.52205 L 337.37387,377.04811 L 333.42728,377.04811 z" fill="#FFF"/>
		<path d="M 330.49028,351.90007 C 331.22453,352.63432 346.09308,367.50287 346.82733,368.23712 C 346.09308,368.97136 331.22453,383.83991 330.49028,384.57416 C 329.75603,383.83991 314.88748,368.97136 314.15323,368.23712 C 314.88748,367.50287 329.75603,352.63432 330.49028,351.90007 z M 330.03137,350.70691 L 312.50117,368.23712 L 330.49028,386.13444 L 348.38761,368.23712 L 330.49028,350.33979 L 330.03137,350.70691 z" fill="#FFF"/>
		<path d="M 302.40524,388.70432 L 302.40524,390.99885 C 302.40524,395.49612 305.98471,399.07559 310.3902,399.07559 L 382.43842,399.07559 L 382.43842,388.70432 L 302.40524,388.70432 z" fill="#000" stroke="#000" stroke-width="0.64246821"/>
		<path d="M 302.22168,388.70432 L 382.80555,388.70432" fill="none" stroke="#FFF" stroke-width="1.28493643"/>
		<path d="M 321.03682,392.192 L 319.56832,392.192 L 319.56832,394.21119 L 321.03682,394.21119 C 321.67929,394.21119 322.04641,393.84406 322.04641,393.20159 C 322.04641,392.55913 321.67929,392.192 321.03682,392.192 z M 322.13819,397.69887 L 320.76147,395.03722 L 319.56832,395.03722 L 319.56832,397.69887 L 318.55873,397.69887 L 318.55873,391.27419 L 321.03682,391.27419 C 322.32175,391.27419 323.056,392.10022 323.056,393.20159 C 323.056,394.11941 322.50532,394.67009 321.77107,394.85365 L 323.23957,397.69887 L 322.13819,397.69887 z" fill="#FFF"/>
		<path d="M 324.24916,397.69887 L 324.24916,391.27419 L 328.28753,391.27419 L 328.28753,392.192 L 325.16697,392.192 L 325.16697,394.02762 L 327.82862,394.02762 L 327.82862,394.94544 L 325.16697,394.94544 L 325.16697,396.78106 L 328.28753,396.78106 L 328.28753,397.69887 L 324.24916,397.69887 z" fill="#FFF"/>
		<path d="M 331.13275,397.79065 C 330.12315,397.79065 329.48069,397.51531 328.83822,396.87284 L 329.48069,396.23037 C 329.93959,396.68928 330.49028,396.87284 331.13275,396.87284 C 331.95878,396.87284 332.41768,396.50572 332.41768,395.86325 C 332.41768,395.5879 332.3259,395.40434 332.14234,395.22078 C 332.05056,395.129 331.867,395.03722 331.49987,394.94544 L 330.76562,394.85365 C 330.21494,394.76187 329.84781,394.57831 329.48069,394.39475 C 329.20534,394.02762 329.02178,393.6605 329.02178,393.10981 C 329.02178,392.00844 329.84781,391.27419 331.22453,391.27419 C 332.05056,391.27419 332.60125,391.45775 333.15193,392.00844 L 332.50946,392.55913 C 332.14234,392.192 331.68343,392.10022 331.13275,392.10022 C 330.3985,392.10022 330.03137,392.55913 330.03137,393.10981 C 330.03137,393.29337 330.03137,393.56872 330.21494,393.6605 C 330.3985,393.84406 330.67384,393.93584 330.94918,394.02762 L 331.68343,394.11941 C 332.23412,394.21119 332.60125,394.30297 332.87659,394.57831 C 333.24371,394.85365 333.42728,395.31256 333.42728,395.86325 C 333.42728,397.0564 332.41768,397.79065 331.13275,397.79065 z" fill="#FFF"/>
		<path d="M 336.63962,392.192 L 336.63962,397.69887 L 335.63002,397.69887 L 335.63002,392.192 L 333.88618,392.192 L 333.88618,391.27419 L 338.38346,391.27419 L 338.38346,392.192 L 336.63962,392.192 z" fill="#FFF"/>
		<path d="M 341.68758,392.192 L 340.21908,392.192 L 340.21908,394.21119 L 341.68758,394.21119 C 342.33005,394.21119 342.69717,393.84406 342.69717,393.20159 C 342.69717,392.55913 342.33005,392.192 341.68758,392.192 z M 342.78896,397.69887 L 341.41224,395.03722 L 340.21908,395.03722 L 340.21908,397.69887 L 339.20949,397.69887 L 339.20949,391.27419 L 341.68758,391.27419 C 342.97252,391.27419 343.70677,392.10022 343.70677,393.20159 C 343.70677,394.11941 343.15608,394.67009 342.42183,394.85365 L 343.89033,397.69887 L 342.78896,397.69887 z" fill="#FFF"/>
		<path d="M 344.89992,397.69887 L 345.81773,397.69887 L 345.81773,391.36597 L 344.89992,391.36597 L 344.89992,397.69887 z" fill="#FFF"/>
		<path d="M 349.3972,397.79065 C 348.66295,397.79065 348.11226,397.51531 347.65336,397.0564 C 347.01089,396.41393 347.10267,395.77147 347.10267,394.48653 C 347.10267,393.29337 347.01089,392.55913 347.65336,391.91666 C 348.11226,391.54953 348.66295,391.27419 349.3972,391.27419 C 350.49857,391.27419 351.41639,391.91666 351.59995,393.20159 L 350.68214,393.20159 C 350.49857,392.55913 350.03967,392.10022 349.3972,392.10022 C 348.93829,392.10022 348.66295,392.28378 348.38761,392.55913 C 348.11226,392.83447 348.02048,393.20159 348.02048,394.48653 C 348.02048,395.77147 348.11226,396.13859 348.38761,396.50572 C 348.66295,396.68928 348.93829,396.87284 349.3972,396.87284 C 350.03967,396.87284 350.49857,396.41393 350.68214,395.77147 L 351.59995,395.77147 C 351.41639,397.0564 350.49857,397.79065 349.3972,397.79065 z" fill="#FFF"/>
		<path d="M 354.62873,392.192 L 354.62873,397.69887 L 353.71091,397.69887 L 353.71091,392.192 L 351.96707,392.192 L 351.96707,391.27419 L 356.46435,391.27419 L 356.46435,392.192 L 354.62873,392.192 z" fill="#FFF"/>
		<path d="M 357.29038,397.69887 L 357.29038,391.27419 L 361.32875,391.27419 L 361.32875,392.192 L 358.29997,392.192 L 358.29997,394.02762 L 360.86985,394.02762 L 360.86985,394.94544 L 358.29997,394.94544 L 358.29997,396.78106 L 361.32875,396.78106 L 361.32875,397.69887 L 357.29038,397.69887 z" fill="#FFF"/>
		<path d="M 365.73425,392.65091 C 365.4589,392.28378 365.09178,392.192 364.63287,392.192 L 363.43972,392.192 L 363.43972,396.78106 L 364.63287,396.78106 C 365.09178,396.78106 365.4589,396.68928 365.73425,396.41393 C 366.00959,396.04681 366.00959,395.31256 366.00959,394.48653 C 366.00959,393.56872 366.00959,393.01803 365.73425,392.65091 z M 366.37672,397.0564 C 365.91781,397.51531 365.36712,397.69887 364.72466,397.69887 L 362.43013,397.69887 L 362.43013,391.27419 L 364.72466,391.27419 C 365.36712,391.27419 365.91781,391.54953 366.37672,391.91666 C 367.01918,392.65091 367.01918,393.56872 367.01918,394.48653 C 367.01918,395.40434 367.01918,396.41393 366.37672,397.0564 z" fill="#FFF"/>
		<path d="M 382.71376,347.40279 L 382.71376,399.07559 L 454.85376,399.07559 C 459.25926,399.07559 462.83873,395.49612 462.83873,391.09063 L 462.83873,355.38775 C 462.83873,350.98226 459.25926,347.40279 454.85376,347.40279 L 382.71376,347.40279 z" fill="#FFF" stroke="#000" stroke-width="0.64246821"/>
		<path d="M 387.94529,363.28093 L 389.68913,363.28093 C 389.8727,363.28093 390.05626,363.28093 390.23982,363.37271 C 390.42338,363.46449 390.51516,363.55628 390.60695,363.64806 C 390.69873,363.83162 390.79051,363.9234 390.79051,364.10696 C 390.88229,364.29053 390.88229,364.47409 390.88229,364.65765 C 390.88229,364.84121 390.88229,365.02477 390.79051,365.20834 C 390.79051,365.3919 390.69873,365.48368 390.60695,365.66724 C 390.51516,365.75902 390.3316,365.94259 390.23982,366.03437 C 390.05626,366.12615 389.8727,366.12615 389.68913,366.12615 L 387.94529,366.12615 L 387.94529,363.28093 z M 389.32201,367.13574 C 389.41379,367.13574 389.50557,367.13574 389.68913,367.13574 C 389.78091,367.13574 389.96448,367.22752 390.05626,367.3193 C 390.23982,367.3193 390.3316,367.50287 390.42338,367.59465 C 390.60695,367.77821 390.60695,367.96177 390.69873,368.23712 C 390.69873,368.60424 390.69873,368.87958 390.69873,369.15493 C 390.69873,369.43027 390.69873,369.70561 390.79051,369.98096 C 390.79051,370.2563 390.79051,370.53164 390.79051,370.71521 C 390.88229,370.89877 390.88229,371.08233 390.97407,371.26589 L 392.16722,371.26589 C 392.16722,371.17411 392.16722,370.99055 392.07544,370.71521 C 392.07544,370.53164 391.98366,370.2563 391.98366,370.07274 C 391.98366,369.7974 391.89188,369.61383 391.89188,369.33849 C 391.89188,369.15493 391.89188,368.97136 391.89188,368.87958 C 391.89188,368.42068 391.89188,368.14533 391.8001,367.77821 C 391.70832,367.50287 391.61654,367.3193 391.52476,367.13574 C 391.43298,366.95218 391.24941,366.8604 391.06585,366.76862 C 390.88229,366.67684 390.69873,366.58505 390.42338,366.58505 L 390.42338,366.58505 C 390.97407,366.49327 391.34119,366.21793 391.61654,365.85081 C 391.89188,365.48368 392.07544,365.02477 392.07544,364.47409 C 392.07544,364.19874 392.07544,363.9234 391.98366,363.64806 C 391.89188,363.37271 391.8001,363.18915 391.61654,362.91381 C 391.43298,362.73025 391.15763,362.54668 390.88229,362.4549 C 390.60695,362.27134 390.3316,362.27134 389.8727,362.27134 L 386.75214,362.27134 L 386.75214,371.26589 L 387.94529,371.26589 L 387.94529,367.13574 L 389.32201,367.13574 z" fill="#000"/>
		<path d="M 394.36997,367.68643 C 394.36997,367.22752 394.36997,366.8604 394.46175,366.58505 C 394.55354,366.30971 394.64532,366.12615 394.7371,365.94259 C 394.82888,365.85081 394.92066,365.75902 395.10422,365.66724 C 395.196,365.66724 395.37957,365.57546 395.56313,365.57546 C 395.74669,365.57546 395.93025,365.66724 396.11382,365.66724 C 396.2056,365.66724 396.38916,365.85081 396.48094,365.94259 C 396.57272,366.12615 396.6645,366.30971 396.75628,366.58505 C 396.75628,366.8604 396.84806,367.22752 396.84806,367.68643 L 394.36997,367.68643 z M 397.94944,368.42068 L 397.94944,367.86999 C 397.94944,367.41108 397.85766,366.95218 397.85766,366.58505 C 397.76588,366.12615 397.6741,365.85081 397.49053,365.57546 C 397.30697,365.30012 397.03163,365.11656 396.75628,365.02477 C 396.48094,364.93299 396.11382,364.84121 395.65491,364.84121 C 395.10422,364.84121 394.64532,364.93299 394.36997,365.11656 C 394.00285,365.30012 393.81929,365.48368 393.63572,365.85081 C 393.45216,366.12615 393.36038,366.49327 393.36038,366.8604 C 393.2686,367.3193 393.2686,367.77821 393.2686,368.23712 C 393.2686,368.87958 393.36038,369.52205 393.45216,369.88918 C 393.54394,370.34808 393.7275,370.62343 393.91107,370.89877 C 394.18641,371.08233 394.46175,371.26589 394.7371,371.26589 C 395.01244,371.35768 395.28778,371.44946 395.65491,371.44946 C 396.29738,371.44946 396.84806,371.26589 397.30697,370.89877 C 397.6741,370.62343 397.85766,370.07274 397.85766,369.33849 L 396.75628,369.33849 C 396.75628,369.52205 396.6645,369.70561 396.6645,369.7974 C 396.57272,369.98096 396.48094,370.07274 396.48094,370.16452 C 396.38916,370.34808 396.2056,370.43986 396.11382,370.43986 C 395.93025,370.53164 395.83847,370.53164 395.65491,370.53164 C 395.47135,370.53164 395.28778,370.53164 395.10422,370.43986 C 394.92066,370.43986 394.82888,370.34808 394.7371,370.16452 C 394.55354,369.98096 394.46175,369.7974 394.46175,369.52205 C 394.36997,369.24671 394.36997,368.87958 394.36997,368.42068 L 397.94944,368.42068 z" fill="#000"/>
		<path d="M 403.18097,368.69602 C 402.9974,368.42068 402.81384,368.23712 402.5385,368.05355 C 402.35493,367.86999 402.07959,367.77821 401.80425,367.68643 C 401.5289,367.59465 401.25356,367.41108 401.07,367.3193 C 400.79465,367.22752 400.61109,367.04396 400.42753,366.95218 C 400.33575,366.76862 400.24397,366.67684 400.24397,366.49327 C 400.24397,366.21793 400.33575,365.94259 400.51931,365.85081 C 400.70287,365.66724 400.88644,365.57546 401.16178,365.57546 C 401.5289,365.57546 401.80425,365.66724 401.98781,365.85081 C 402.07959,366.03437 402.17137,366.30971 402.17137,366.58505 L 403.36453,366.58505 C 403.36453,366.30971 403.36453,366.03437 403.18097,365.85081 C 403.08918,365.57546 402.9974,365.3919 402.81384,365.30012 C 402.63028,365.11656 402.35493,365.02477 402.17137,364.93299 C 401.89603,364.84121 401.62069,364.84121 401.34534,364.84121 C 400.88644,364.84121 400.51931,364.93299 400.24397,365.02477 C 399.96862,365.11656 399.69328,365.30012 399.6015,365.48368 C 399.41794,365.57546 399.32616,365.85081 399.23438,366.03437 C 399.14259,366.21793 399.14259,366.40149 399.14259,366.58505 C 399.14259,366.8604 399.23438,367.13574 399.41794,367.3193 C 399.50972,367.59465 399.69328,367.77821 399.96862,367.96177 C 400.24397,368.14533 400.42753,368.23712 400.70287,368.3289 C 400.97822,368.51246 401.25356,368.60424 401.5289,368.69602 C 401.71247,368.87958 401.89603,368.97136 402.07959,369.15493 C 402.26315,369.24671 402.26315,369.43027 402.26315,369.61383 C 402.26315,369.88918 402.17137,370.16452 401.98781,370.34808 C 401.80425,370.53164 401.5289,370.53164 401.25356,370.53164 C 400.97822,370.53164 400.79465,370.53164 400.61109,370.43986 C 400.51931,370.34808 400.33575,370.2563 400.33575,370.07274 C 400.24397,369.98096 400.24397,369.7974 400.15219,369.70561 C 400.15219,369.52205 400.15219,369.43027 400.15219,369.33849 L 398.95903,369.33849 C 398.95903,370.07274 399.14259,370.62343 399.6015,370.89877 C 399.96862,371.26589 400.51931,371.44946 401.16178,371.44946 C 401.5289,371.44946 401.80425,371.35768 402.07959,371.26589 C 402.35493,371.26589 402.5385,371.08233 402.72206,370.99055 C 402.90562,370.80699 403.08918,370.62343 403.18097,370.34808 C 403.36453,370.16452 403.36453,369.7974 403.36453,369.52205 C 403.36453,369.15493 403.27275,368.87958 403.18097,368.69602 L 403.18097,368.69602 z" fill="#000"/>
		<path d="M 403.63987,364.93299 L 403.63987,365.75902 L 404.64946,365.75902 L 404.64946,370.2563 C 404.64946,370.62343 404.83303,370.89877 405.01659,371.08233 C 405.20015,371.26589 405.56728,371.35768 406.11796,371.35768 C 406.20974,371.35768 406.39331,371.35768 406.57687,371.35768 C 406.76043,371.26589 406.94399,371.26589 407.12756,371.26589 L 407.12756,370.43986 C 407.03577,370.43986 406.85221,370.53164 406.85221,370.53164 C 406.76043,370.53164 406.66865,370.53164 406.66865,370.53164 C 406.39331,370.53164 406.20974,370.53164 406.11796,370.43986 C 405.9344,370.34808 405.84262,370.2563 405.84262,370.16452 C 405.75084,370.16452 405.75084,370.07274 405.75084,369.88918 C 405.65906,369.7974 405.65906,369.70561 405.65906,369.61383 L 405.65906,365.75902 L 407.12756,365.75902 L 407.12756,364.93299 L 405.65906,364.93299 L 405.65906,363.28093 L 404.64946,363.73984 L 404.64946,364.93299 L 403.63987,364.93299 z" fill="#000"/>
		<path d="M 408.77962,364.93299 L 407.77002,364.93299 L 407.77002,371.26589 L 408.77962,371.26589 L 408.77962,367.59465 C 408.77962,367.3193 408.77962,367.13574 408.8714,366.95218 C 408.8714,366.67684 408.96318,366.49327 409.05496,366.40149 C 409.23852,366.21793 409.3303,366.12615 409.51387,365.94259 C 409.69743,365.85081 409.97277,365.85081 410.24812,365.85081 C 410.24812,365.85081 410.3399,365.85081 410.3399,365.85081 C 410.43168,365.85081 410.43168,365.85081 410.52346,365.85081 C 410.52346,365.85081 410.61524,365.85081 410.61524,365.85081 C 410.70702,365.85081 410.70702,365.85081 410.7988,365.85081 L 410.7988,364.84121 C 410.52346,364.84121 410.3399,364.84121 410.15633,364.84121 C 409.88099,364.84121 409.69743,364.93299 409.60565,365.02477 C 409.42208,365.11656 409.3303,365.20834 409.14674,365.30012 C 409.05496,365.48368 408.96318,365.66724 408.77962,365.94259 L 408.77962,365.94259 L 408.77962,364.93299 z" fill="#000"/>
		<path d="M 411.53305,363.37271 L 412.63443,363.37271 L 412.63443,362.27134 L 411.53305,362.27134 L 411.53305,363.37271 z M 412.63443,364.93299 L 411.53305,364.93299 L 411.53305,371.26589 L 412.63443,371.26589 L 412.63443,364.93299 z" fill="#000"/>
		<path d="M 418.41664,366.95218 C 418.50842,366.30971 418.32486,365.75902 417.95773,365.3919 C 417.59061,365.02477 417.1317,364.84121 416.48923,364.84121 C 415.93855,364.84121 415.47964,364.93299 415.2043,365.11656 C 414.83717,365.30012 414.65361,365.48368 414.47005,365.85081 C 414.28649,366.12615 414.19471,366.49327 414.19471,366.8604 C 414.10292,367.3193 414.10292,367.77821 414.10292,368.23712 C 414.10292,368.87958 414.19471,369.52205 414.28649,369.88918 C 414.37827,370.34808 414.56183,370.62343 414.83717,370.89877 C 415.02074,371.08233 415.29608,371.26589 415.57142,371.26589 C 415.84677,371.35768 416.12211,371.44946 416.48923,371.44946 C 416.6728,371.44946 416.85636,371.35768 417.1317,371.26589 C 417.31527,371.26589 417.59061,371.08233 417.77417,370.99055 C 417.95773,370.80699 418.1413,370.53164 418.32486,370.2563 C 418.41664,369.98096 418.50842,369.61383 418.50842,369.15493 L 417.40705,369.15493 C 417.40705,369.43027 417.40705,369.70561 417.31527,369.88918 C 417.22348,370.07274 417.1317,370.16452 417.03992,370.2563 C 416.94814,370.43986 416.85636,370.43986 416.76458,370.53164 C 416.6728,370.53164 416.58102,370.53164 416.48923,370.53164 C 416.21389,370.53164 416.03033,370.53164 415.84677,370.43986 C 415.6632,370.34808 415.57142,370.16452 415.38786,369.98096 C 415.29608,369.70561 415.29608,369.43027 415.2043,369.06315 C 415.2043,368.69602 415.2043,368.3289 415.2043,367.77821 C 415.2043,367.3193 415.2043,366.95218 415.29608,366.67684 C 415.29608,366.40149 415.38786,366.21793 415.57142,366.03437 C 415.6632,365.94259 415.75499,365.85081 415.93855,365.75902 C 416.12211,365.66724 416.30567,365.66724 416.48923,365.66724 C 416.58102,365.66724 416.6728,365.66724 416.85636,365.75902 C 416.94814,365.75902 417.03992,365.85081 417.1317,365.94259 C 417.22348,366.03437 417.22348,366.12615 417.31527,366.30971 C 417.40705,366.49327 417.40705,366.67684 417.40705,366.95218 L 418.41664,366.95218 z" fill="#000"/>
		<path d="M 419.05911,364.93299 L 419.05911,365.75902 L 420.16048,365.75902 L 420.16048,370.2563 C 420.16048,370.62343 420.25226,370.89877 420.43583,371.08233 C 420.71117,371.26589 421.07829,371.35768 421.5372,371.35768 C 421.72076,371.35768 421.90432,371.35768 422.08789,371.35768 C 422.27145,371.26589 422.36323,371.26589 422.54679,371.26589 L 422.54679,370.43986 C 422.45501,370.43986 422.36323,370.53164 422.27145,370.53164 C 422.17967,370.53164 422.17967,370.53164 422.08789,370.53164 C 421.90432,370.53164 421.72076,370.53164 421.5372,370.43986 C 421.44542,370.34808 421.35364,370.2563 421.26186,370.16452 C 421.17007,370.16452 421.17007,370.07274 421.17007,369.88918 C 421.17007,369.7974 421.17007,369.70561 421.17007,369.61383 L 421.17007,365.75902 L 422.54679,365.75902 L 422.54679,364.93299 L 421.17007,364.93299 L 421.17007,363.28093 L 420.16048,363.73984 L 420.16048,364.93299 L 419.05911,364.93299 z" fill="#000"/>
		<path d="M 424.19885,367.68643 C 424.19885,367.22752 424.19885,366.8604 424.29063,366.58505 C 424.38242,366.30971 424.4742,366.12615 424.56598,365.94259 C 424.65776,365.85081 424.84132,365.75902 424.9331,365.66724 C 425.11666,365.66724 425.20845,365.57546 425.39201,365.57546 C 425.57557,365.57546 425.75913,365.66724 425.9427,365.66724 C 426.03448,365.66724 426.21804,365.85081 426.30982,365.94259 C 426.4016,366.12615 426.49338,366.30971 426.58516,366.58505 C 426.67694,366.8604 426.67694,367.22752 426.67694,367.68643 L 424.19885,367.68643 z M 427.77832,368.42068 L 427.77832,367.86999 C 427.77832,367.41108 427.68654,366.95218 427.68654,366.58505 C 427.59476,366.12615 427.50298,365.85081 427.31941,365.57546 C 427.13585,365.30012 426.86051,365.11656 426.58516,365.02477 C 426.30982,364.93299 425.9427,364.84121 425.48379,364.84121 C 424.9331,364.84121 424.4742,364.93299 424.19885,365.11656 C 423.92351,365.30012 423.64817,365.48368 423.4646,365.85081 C 423.28104,366.12615 423.18926,366.49327 423.18926,366.8604 C 423.09748,367.3193 423.09748,367.77821 423.09748,368.23712 C 423.09748,368.87958 423.18926,369.52205 423.28104,369.88918 C 423.37282,370.34808 423.55639,370.62343 423.83173,370.89877 C 424.01529,371.08233 424.29063,371.26589 424.56598,371.26589 C 424.84132,371.35768 425.11666,371.44946 425.48379,371.44946 C 426.12626,371.44946 426.67694,371.26589 427.13585,370.89877 C 427.50298,370.62343 427.68654,370.07274 427.68654,369.33849 L 426.58516,369.33849 C 426.58516,369.52205 426.58516,369.70561 426.49338,369.7974 C 426.4016,369.98096 426.4016,370.07274 426.30982,370.16452 C 426.21804,370.34808 426.03448,370.43986 425.9427,370.43986 C 425.75913,370.53164 425.66735,370.53164 425.48379,370.53164 C 425.30023,370.53164 425.11666,370.53164 424.9331,370.43986 C 424.74954,370.43986 424.65776,370.34808 424.56598,370.16452 C 424.38242,369.98096 424.38242,369.7974 424.29063,369.52205 C 424.19885,369.24671 424.19885,368.87958 424.19885,368.42068 L 427.77832,368.42068 z" fill="#000"/>
		<path d="M 432.45916,368.7878 C 432.45916,369.15493 432.45916,369.43027 432.36738,369.70561 C 432.2756,369.98096 432.18382,370.16452 432.00025,370.34808 C 431.81669,370.43986 431.63313,370.53164 431.35778,370.53164 C 430.99066,370.53164 430.8071,370.53164 430.62354,370.34808 C 430.43997,370.16452 430.34819,369.98096 430.25641,369.7974 C 430.16463,369.52205 430.07285,369.24671 430.07285,368.97136 C 430.07285,368.69602 430.07285,368.51246 430.07285,368.23712 C 430.07285,367.77821 430.07285,367.41108 430.07285,367.13574 C 430.07285,366.76862 430.16463,366.49327 430.25641,366.30971 C 430.34819,366.12615 430.43997,365.94259 430.62354,365.85081 C 430.8071,365.75902 430.99066,365.66724 431.266,365.66724 C 431.63313,365.66724 431.81669,365.75902 432.00025,365.85081 C 432.09203,366.03437 432.2756,366.21793 432.36738,366.40149 C 432.36738,366.67684 432.45916,366.95218 432.45916,367.13574 C 432.45916,367.41108 432.45916,367.68643 432.45916,367.86999 C 432.45916,368.14533 432.45916,368.51246 432.45916,368.7878 L 432.45916,368.7878 z M 432.45916,365.57546 L 432.45916,365.57546 C 432.2756,365.30012 432.09203,365.11656 431.81669,365.02477 C 431.63313,364.93299 431.35778,364.84121 431.08244,364.84121 C 430.53175,364.84121 430.16463,364.93299 429.88929,365.11656 C 429.61394,365.30012 429.43038,365.57546 429.24682,365.94259 C 429.15504,366.21793 429.06326,366.58505 428.97147,367.04396 C 428.97147,367.41108 428.97147,367.86999 428.97147,368.23712 C 428.97147,368.87958 429.06326,369.52205 429.15504,369.88918 C 429.24682,370.34808 429.43038,370.62343 429.61394,370.89877 C 429.7975,371.08233 429.98107,371.26589 430.25641,371.26589 C 430.53175,371.35768 430.8071,371.44946 430.99066,371.44946 C 431.35778,371.44946 431.63313,371.35768 431.90847,371.17411 C 432.09203,371.08233 432.2756,370.80699 432.45916,370.53164 L 432.45916,370.53164 L 432.45916,371.26589 L 433.56053,371.26589 L 433.56053,362.27134 L 432.45916,362.27134 L 432.45916,365.57546 z" fill="#000"/>
		<path d="M 436.68109,364.93299 L 436.68109,365.75902 L 437.69069,365.75902 L 437.69069,370.2563 C 437.69069,370.62343 437.78247,370.89877 438.05781,371.08233 C 438.24137,371.26589 438.6085,371.35768 439.0674,371.35768 C 439.25097,371.35768 439.43453,371.35768 439.61809,371.35768 C 439.80165,371.26589 439.98521,371.26589 440.077,371.26589 L 440.077,370.43986 C 439.98521,370.43986 439.89343,370.53164 439.80165,370.53164 C 439.80165,370.53164 439.70987,370.53164 439.61809,370.53164 C 439.43453,370.53164 439.25097,370.53164 439.15918,370.43986 C 438.97562,370.34808 438.88384,370.2563 438.79206,370.16452 C 438.79206,370.16452 438.70028,370.07274 438.70028,369.88918 C 438.70028,369.7974 438.70028,369.70561 438.70028,369.61383 L 438.70028,365.75902 L 440.077,365.75902 L 440.077,364.93299 L 438.70028,364.93299 L 438.70028,363.28093 L 437.69069,363.73984 L 437.69069,364.93299 L 436.68109,364.93299 z" fill="#000"/>
		<path d="M 442.37152,370.43986 C 442.18796,370.34808 442.0044,370.16452 441.91262,369.98096 C 441.82084,369.70561 441.72906,369.43027 441.72906,369.06315 C 441.63728,368.69602 441.63728,368.3289 441.63728,367.77821 C 441.63728,367.3193 441.72906,366.95218 441.72906,366.67684 C 441.82084,366.40149 441.91262,366.21793 442.0044,366.03437 C 442.09618,365.94259 442.27974,365.85081 442.46331,365.75902 C 442.64687,365.66724 442.73865,365.66724 443.01399,365.66724 C 443.19756,365.66724 443.38112,365.66724 443.56468,365.75902 C 443.65646,365.85081 443.84002,365.94259 443.9318,366.03437 C 444.02359,366.21793 444.11537,366.40149 444.20715,366.67684 C 444.29893,366.95218 444.29893,367.3193 444.29893,367.77821 C 444.29893,368.3289 444.29893,368.69602 444.29893,369.06315 C 444.20715,369.43027 444.11537,369.70561 444.02359,369.98096 C 443.9318,370.16452 443.84002,370.34808 443.65646,370.43986 C 443.4729,370.53164 443.19756,370.53164 443.01399,370.53164 C 442.73865,370.53164 442.46331,370.53164 442.37152,370.43986 L 442.37152,370.43986 z M 443.9318,371.26589 C 444.20715,371.26589 444.48249,371.08233 444.66605,370.89877 C 444.9414,370.62343 445.03318,370.34808 445.21674,369.88918 C 445.30852,369.52205 445.4003,368.87958 445.4003,368.23712 C 445.4003,367.77821 445.4003,367.3193 445.30852,366.8604 C 445.30852,366.49327 445.21674,366.12615 445.03318,365.85081 C 444.84962,365.48368 444.57427,365.30012 444.29893,365.11656 C 443.9318,364.93299 443.56468,364.84121 443.01399,364.84121 C 442.46331,364.84121 442.0044,364.93299 441.63728,365.11656 C 441.36193,365.30012 441.08659,365.48368 440.99481,365.85081 C 440.81125,366.12615 440.71946,366.49327 440.62768,366.8604 C 440.62768,367.3193 440.5359,367.77821 440.5359,368.23712 C 440.5359,368.87958 440.62768,369.52205 440.71946,369.88918 C 440.90303,370.34808 441.08659,370.62343 441.27015,370.89877 C 441.45371,371.08233 441.72906,371.26589 442.0044,371.26589 C 442.37152,371.35768 442.64687,371.44946 443.01399,371.44946 C 443.28934,371.44946 443.65646,371.35768 443.9318,371.26589 L 443.9318,371.26589 z" fill="#000"/>
		<path d="M 451.91677,362.54668 L 450.90717,362.54668 C 450.81539,362.63846 450.72361,362.73025 450.54005,362.82203 C 450.44827,363.00559 450.26471,363.09737 450.17292,363.18915 C 449.98936,363.28093 449.89758,363.37271 449.71402,363.46449 C 449.62224,363.55628 449.53046,363.55628 449.43868,363.64806 L 449.43868,364.74943 L 450.72361,363.83162 L 450.72361,371.26589 L 451.91677,371.26589 L 451.91677,362.54668 z" fill="#000"/>
		<path d="M 455.77158,366.03437 C 455.67979,365.94259 455.49623,365.75902 455.40445,365.57546 C 455.31267,365.48368 455.31267,365.30012 455.31267,365.11656 C 455.22089,364.93299 455.22089,364.74943 455.22089,364.56587 C 455.22089,364.38231 455.22089,364.29053 455.31267,364.10696 C 455.31267,363.9234 455.40445,363.83162 455.49623,363.64806 C 455.58801,363.55628 455.67979,363.46449 455.86336,363.37271 C 455.95514,363.28093 456.1387,363.28093 456.32226,363.28093 C 456.50583,363.28093 456.68939,363.28093 456.78117,363.37271 C 456.96473,363.46449 457.05651,363.55628 457.14829,363.64806 C 457.24007,363.83162 457.24007,363.9234 457.33186,364.10696 C 457.33186,364.29053 457.42364,364.38231 457.42364,364.56587 C 457.42364,364.74943 457.33186,364.93299 457.33186,365.11656 C 457.33186,365.30012 457.24007,365.48368 457.14829,365.57546 C 457.05651,365.75902 456.96473,365.94259 456.87295,366.03437 C 456.68939,366.12615 456.50583,366.12615 456.32226,366.12615 C 456.04692,366.12615 455.95514,366.12615 455.77158,366.03437 L 455.77158,366.03437 z M 455.77158,370.34808 C 455.58801,370.2563 455.49623,370.16452 455.40445,369.98096 C 455.31267,369.88918 455.22089,369.70561 455.22089,369.52205 C 455.12911,369.33849 455.12911,369.15493 455.12911,368.97136 C 455.12911,368.7878 455.12911,368.60424 455.22089,368.3289 C 455.22089,368.14533 455.22089,367.96177 455.31267,367.77821 C 455.40445,367.59465 455.49623,367.41108 455.67979,367.3193 C 455.86336,367.22752 456.04692,367.13574 456.32226,367.13574 C 456.59761,367.13574 456.78117,367.22752 456.96473,367.3193 C 457.05651,367.41108 457.24007,367.59465 457.33186,367.77821 C 457.33186,367.96177 457.42364,368.14533 457.42364,368.3289 C 457.42364,368.60424 457.51542,368.7878 457.51542,368.97136 C 457.51542,369.15493 457.42364,369.33849 457.42364,369.52205 C 457.33186,369.70561 457.33186,369.88918 457.24007,369.98096 C 457.14829,370.16452 456.96473,370.2563 456.87295,370.34808 C 456.68939,370.43986 456.50583,370.53164 456.32226,370.53164 C 456.04692,370.53164 455.86336,370.43986 455.77158,370.34808 L 455.77158,370.34808 z M 457.05651,366.67684 C 457.24007,366.58505 457.51542,366.49327 457.69898,366.40149 C 457.88254,366.30971 458.0661,366.12615 458.15789,365.94259 C 458.24967,365.75902 458.34145,365.57546 458.43323,365.30012 C 458.52501,365.11656 458.52501,364.84121 458.52501,364.65765 C 458.52501,363.9234 458.34145,363.37271 457.97432,363.00559 C 457.51542,362.63846 456.96473,362.4549 456.32226,362.4549 C 455.58801,362.4549 455.03733,362.63846 454.6702,363.00559 C 454.30308,363.37271 454.02773,363.9234 454.02773,364.65765 C 454.11951,364.84121 454.11951,365.11656 454.2113,365.30012 C 454.2113,365.57546 454.30308,365.75902 454.48664,365.94259 C 454.57842,366.12615 454.76198,366.30971 454.94555,366.40149 C 455.12911,366.49327 455.31267,366.58505 455.58801,366.67684 L 455.58801,366.67684 C 455.31267,366.67684 455.03733,366.76862 454.76198,366.95218 C 454.57842,367.04396 454.39486,367.22752 454.30308,367.41108 C 454.2113,367.59465 454.11951,367.86999 454.02773,368.14533 C 454.02773,368.42068 454.02773,368.69602 454.02773,368.97136 C 454.02773,369.70561 454.2113,370.34808 454.57842,370.80699 C 454.94555,371.26589 455.49623,371.44946 456.32226,371.44946 C 457.05651,371.44946 457.6072,371.26589 458.0661,370.80699 C 458.43323,370.34808 458.61679,369.70561 458.61679,368.97136 C 458.61679,368.69602 458.61679,368.42068 458.52501,368.14533 C 458.52501,367.86999 458.43323,367.59465 458.34145,367.41108 C 458.15789,367.22752 458.0661,367.04396 457.79076,366.95218 C 457.6072,366.76862 457.33186,366.67684 457.05651,366.67684 L 457.05651,366.67684 z" fill="#000"/>
		<path d="M 389.8727,379.89332 C 389.78091,380.16867 389.68913,380.44401 389.59735,380.62757 C 389.41379,380.81114 389.32201,380.90292 389.13845,380.9947 C 388.95488,380.9947 388.77132,381.08648 388.58776,381.08648 C 388.31242,381.08648 388.03707,380.90292 387.85351,380.71935 C 387.66995,380.44401 387.66995,380.16867 387.66995,379.89332 C 387.66995,379.5262 387.66995,379.34264 387.85351,379.15907 C 388.03707,378.97551 388.22063,378.88373 388.4042,378.79195 C 388.67954,378.70017 388.8631,378.60839 389.13845,378.60839 C 389.41379,378.60839 389.68913,378.60839 389.96448,378.60839 C 389.96448,379.15907 389.96448,379.5262 389.8727,379.89332 L 389.8727,379.89332 z M 389.96448,381.72895 L 391.06585,381.72895 C 391.06585,381.54539 390.97407,381.27004 390.97407,380.9947 C 390.97407,380.81114 390.97407,380.53579 390.97407,380.26045 L 390.97407,377.23167 C 390.97407,376.95633 390.97407,376.68098 390.88229,376.49742 C 390.79051,376.22208 390.69873,376.03851 390.51516,375.85495 C 390.42338,375.67139 390.14804,375.57961 389.8727,375.48783 C 389.68913,375.39605 389.32201,375.30427 388.8631,375.30427 C 388.22063,375.30427 387.66995,375.48783 387.30282,375.76317 C 387.02748,376.03851 386.75214,376.49742 386.75214,377.23167 L 387.85351,377.23167 C 387.85351,376.86455 387.94529,376.5892 388.12885,376.40564 C 388.22063,376.22208 388.49598,376.1303 388.8631,376.1303 C 389.13845,376.1303 389.32201,376.1303 389.50557,376.22208 C 389.59735,376.31386 389.78091,376.49742 389.78091,376.68098 C 389.8727,376.86455 389.8727,377.04811 389.96448,377.23167 C 389.96448,377.41523 389.96448,377.59879 389.96448,377.87414 C 389.59735,377.87414 389.23023,377.87414 388.77132,377.87414 C 388.4042,377.87414 388.03707,377.96592 387.76173,378.0577 C 387.3946,378.24126 387.11926,378.42483 386.9357,378.70017 C 386.75214,378.97551 386.56857,379.34264 386.56857,379.80154 C 386.56857,380.07689 386.66035,380.35223 386.66035,380.62757 C 386.75214,380.90292 386.84392,381.08648 386.9357,381.27004 C 387.11926,381.4536 387.30282,381.63717 387.48639,381.72895 C 387.76173,381.82073 388.03707,381.91251 388.31242,381.91251 C 388.77132,381.91251 389.04667,381.82073 389.32201,381.63717 C 389.59735,381.4536 389.78091,381.17826 389.96448,380.90292 L 389.96448,380.90292 L 389.96448,381.72895 z" fill="#000"/>
		<path d="M 397.12341,381.72895 L 397.12341,377.41523 C 397.12341,377.04811 397.12341,376.77276 397.03163,376.49742 C 397.03163,376.31386 396.93985,376.03851 396.75628,375.85495 C 396.6645,375.67139 396.48094,375.57961 396.29738,375.48783 C 396.02203,375.39605 395.74669,375.30427 395.37957,375.30427 C 395.01244,375.30427 394.64532,375.39605 394.46175,375.48783 C 394.18641,375.67139 393.91107,375.85495 393.7275,376.22208 L 393.63572,376.22208 L 393.63572,375.39605 L 392.62613,375.39605 C 392.62613,375.67139 392.62613,375.85495 392.62613,376.1303 C 392.62613,376.31386 392.62613,376.5892 392.62613,376.77276 L 392.62613,381.72895 L 393.63572,381.72895 L 393.63572,378.0577 C 393.63572,377.78236 393.7275,377.59879 393.7275,377.32345 C 393.7275,377.13989 393.81929,376.95633 393.91107,376.77276 C 394.00285,376.5892 394.09463,376.40564 394.27819,376.31386 C 394.46175,376.22208 394.64532,376.1303 395.01244,376.1303 C 395.196,376.1303 395.37957,376.22208 395.56313,376.22208 C 395.65491,376.31386 395.74669,376.40564 395.83847,376.49742 C 395.93025,376.5892 396.02203,376.77276 396.02203,376.86455 C 396.11382,377.04811 396.11382,377.23167 396.11382,377.41523 L 396.11382,381.72895 L 397.12341,381.72895 z" fill="#000"/>
		<path d="M 401.98781,379.34264 C 401.89603,379.61798 401.89603,379.89332 401.80425,380.16867 C 401.71247,380.44401 401.62069,380.62757 401.43712,380.81114 C 401.34534,380.9947 401.07,381.08648 400.79465,381.08648 C 400.51931,381.08648 400.24397,380.9947 400.06041,380.81114 C 399.87684,380.62757 399.78506,380.44401 399.69328,380.26045 C 399.6015,379.98511 399.50972,379.80154 399.50972,379.5262 C 399.50972,379.25086 399.50972,378.97551 399.50972,378.70017 C 399.50972,378.33304 399.50972,377.96592 399.50972,377.59879 C 399.6015,377.32345 399.6015,377.04811 399.69328,376.77276 C 399.78506,376.5892 399.96862,376.40564 400.06041,376.31386 C 400.24397,376.22208 400.51931,376.1303 400.79465,376.1303 C 401.07,376.1303 401.25356,376.22208 401.43712,376.40564 C 401.62069,376.49742 401.71247,376.68098 401.80425,376.95633 C 401.89603,377.13989 401.89603,377.41523 401.89603,377.69058 C 401.98781,377.87414 401.98781,378.14948 401.98781,378.33304 C 401.98781,378.70017 401.98781,378.97551 401.98781,379.34264 L 401.98781,379.34264 z M 401.98781,376.03851 L 401.89603,376.03851 C 401.71247,375.85495 401.5289,375.67139 401.34534,375.48783 C 401.07,375.39605 400.79465,375.30427 400.51931,375.30427 C 399.96862,375.30427 399.6015,375.39605 399.32616,375.57961 C 399.05081,375.85495 398.86725,376.1303 398.68369,376.40564 C 398.59191,376.77276 398.50013,377.13989 398.50013,377.50701 C 398.40834,377.96592 398.40834,378.33304 398.40834,378.70017 C 398.40834,379.43442 398.50013,379.98511 398.59191,380.35223 C 398.68369,380.81114 398.86725,381.08648 399.05081,381.36182 C 399.23438,381.54539 399.50972,381.72895 399.69328,381.82073 C 399.96862,381.82073 400.24397,381.91251 400.51931,381.91251 C 400.79465,381.91251 401.07,381.82073 401.34534,381.63717 C 401.5289,381.54539 401.71247,381.27004 401.89603,380.9947 L 401.98781,380.9947 L 401.98781,381.72895 L 402.9974,381.72895 L 402.9974,372.73439 L 401.98781,372.73439 L 401.98781,376.03851 z" fill="#000"/>
		<path d="M 408.59605,380.90292 C 408.41249,380.81114 408.32071,380.62757 408.22893,380.44401 C 408.13715,380.26045 408.04537,379.89332 407.95359,379.5262 C 407.95359,379.25086 407.95359,378.79195 407.95359,378.24126 C 407.95359,377.78236 407.95359,377.50701 408.04537,377.23167 C 408.13715,376.95633 408.22893,376.68098 408.32071,376.5892 C 408.41249,376.40564 408.59605,376.31386 408.68784,376.22208 C 408.8714,376.22208 409.05496,376.1303 409.23852,376.1303 C 409.42208,376.1303 409.69743,376.22208 409.78921,376.22208 C 409.97277,376.31386 410.15633,376.40564 410.24812,376.5892 C 410.3399,376.68098 410.43168,376.95633 410.52346,377.23167 C 410.52346,377.50701 410.61524,377.78236 410.61524,378.24126 C 410.61524,378.79195 410.61524,379.25086 410.52346,379.5262 C 410.52346,379.89332 410.43168,380.26045 410.3399,380.44401 C 410.24812,380.62757 410.06455,380.81114 409.97277,380.90292 C 409.78921,380.9947 409.51387,381.08648 409.23852,381.08648 C 408.96318,381.08648 408.77962,380.9947 408.59605,380.90292 L 408.59605,380.90292 z M 410.24812,381.82073 C 410.52346,381.72895 410.7988,381.54539 410.98236,381.36182 C 411.16593,381.08648 411.34949,380.81114 411.44127,380.35223 C 411.62483,379.98511 411.71661,379.43442 411.71661,378.70017 C 411.71661,378.24126 411.62483,377.78236 411.62483,377.41523 C 411.53305,376.95633 411.44127,376.5892 411.25771,376.31386 C 411.16593,376.03851 410.89058,375.76317 410.52346,375.57961 C 410.24812,375.39605 409.78921,375.30427 409.23852,375.30427 C 408.68784,375.30427 408.22893,375.39605 407.95359,375.57961 C 407.67824,375.76317 407.4029,376.03851 407.21934,376.31386 C 407.12756,376.5892 406.94399,376.95633 406.94399,377.41523 C 406.85221,377.78236 406.85221,378.24126 406.85221,378.70017 C 406.85221,379.43442 406.94399,379.98511 407.03577,380.35223 C 407.12756,380.81114 407.31112,381.08648 407.58646,381.36182 C 407.77002,381.54539 408.04537,381.72895 408.32071,381.82073 C 408.59605,381.82073 408.96318,381.91251 409.23852,381.91251 C 409.60565,381.91251 409.88099,381.82073 410.24812,381.82073 L 410.24812,381.82073 z" fill="#000"/>
		<path d="M 414.10292,381.72895 L 415.47964,381.72895 L 417.49883,375.39605 L 416.39745,375.39605 L 414.83717,380.81114 L 414.83717,380.81114 L 413.36868,375.39605 L 412.2673,375.39605 L 414.10292,381.72895 z" fill="#000"/>
		<path d="M 419.24267,378.14948 C 419.24267,377.69058 419.24267,377.41523 419.33445,377.13989 C 419.42623,376.86455 419.51801,376.5892 419.60979,376.49742 C 419.70158,376.31386 419.88514,376.22208 419.97692,376.1303 C 420.16048,376.1303 420.25226,376.1303 420.43583,376.1303 C 420.61939,376.1303 420.80295,376.1303 420.98651,376.1303 C 421.17007,376.22208 421.26186,376.31386 421.35364,376.40564 C 421.44542,376.5892 421.5372,376.77276 421.62898,377.04811 C 421.72076,377.32345 421.72076,377.69058 421.72076,378.14948 L 419.24267,378.14948 z M 422.82214,378.97551 L 422.82214,378.42483 C 422.82214,377.87414 422.73035,377.41523 422.73035,377.04811 C 422.63857,376.68098 422.54679,376.31386 422.36323,376.03851 C 422.17967,375.85495 421.99611,375.67139 421.62898,375.48783 C 421.35364,375.39605 420.98651,375.30427 420.52761,375.30427 C 419.97692,375.30427 419.51801,375.39605 419.24267,375.57961 C 418.96733,375.76317 418.69198,376.03851 418.50842,376.31386 C 418.32486,376.5892 418.23308,376.95633 418.23308,377.41523 C 418.1413,377.78236 418.1413,378.24126 418.1413,378.70017 C 418.1413,379.43442 418.23308,379.98511 418.32486,380.35223 C 418.41664,380.81114 418.6002,381.08648 418.87555,381.36182 C 419.05911,381.54539 419.33445,381.72895 419.60979,381.82073 C 419.88514,381.82073 420.25226,381.91251 420.52761,381.91251 C 421.17007,381.91251 421.72076,381.72895 422.17967,381.4536 C 422.54679,381.08648 422.73035,380.53579 422.73035,379.89332 L 421.62898,379.89332 C 421.62898,379.98511 421.62898,380.16867 421.5372,380.26045 C 421.44542,380.44401 421.44542,380.53579 421.35364,380.71935 C 421.26186,380.81114 421.17007,380.90292 420.98651,380.9947 C 420.89473,380.9947 420.71117,381.08648 420.52761,381.08648 C 420.34404,381.08648 420.16048,380.9947 419.97692,380.9947 C 419.79336,380.90292 419.70158,380.81114 419.60979,380.62757 C 419.42623,380.53579 419.42623,380.26045 419.33445,379.98511 C 419.24267,379.70976 419.24267,379.34264 419.24267,378.97551 L 422.82214,378.97551 z" fill="#000"/>
		<path d="M 425.30023,375.39605 L 424.19885,375.39605 L 424.19885,381.72895 L 425.30023,381.72895 L 425.30023,378.0577 C 425.30023,377.78236 425.30023,377.59879 425.30023,377.41523 C 425.39201,377.23167 425.48379,377.04811 425.57557,376.86455 C 425.66735,376.68098 425.75913,376.5892 426.03448,376.49742 C 426.21804,376.40564 426.4016,376.31386 426.67694,376.31386 C 426.76873,376.31386 426.76873,376.31386 426.86051,376.31386 C 426.86051,376.31386 426.95229,376.31386 426.95229,376.31386 C 427.04407,376.31386 427.04407,376.31386 427.13585,376.31386 C 427.13585,376.40564 427.22763,376.40564 427.22763,376.40564 L 427.22763,375.30427 C 426.95229,375.30427 426.76873,375.30427 426.58516,375.30427 C 426.4016,375.39605 426.21804,375.39605 426.03448,375.48783 C 425.85091,375.57961 425.75913,375.67139 425.66735,375.85495 C 425.48379,375.94673 425.39201,376.1303 425.30023,376.40564 L 425.30023,376.40564 L 425.30023,375.39605 z" fill="#000"/>
	</g>
</svg>